<svg id="Layer_1" data-name="Layer 1" xmlns="http://www.w3.org/2000/svg" viewBox="0 0 1776 699"><defs><style>.cls-1{fill:#fcdb38;opacity:0.22;}.cls-2{fill:#ff6584;}.cls-23,.cls-3{fill:#fcd268;}.cls-4{fill:#3f3d56;}.cls-5{fill:#ed4226;}.cls-6{fill:#070a0a;}.cls-7{fill:#cc0503;}.cls-8{fill:#6b0808;}.cls-9{fill:#303131;}.cls-10{fill:#d33714;}.cls-11{fill:#b00504;}.cls-12{fill:#bb2f19;}.cls-13{fill:#e7391c;}.cls-14{fill:#c6c4c3;}.cls-15{fill:#89d5db;opacity:0.56;}.cls-16{fill:#97989a;}.cls-17{fill:#111324;}.cls-18{fill:#379caa;}.cls-19{fill:#cce5e9;}.cls-20{fill:#2f7a83;}.cls-21{fill:#2f6478;}.cls-22{fill:#33435c;}.cls-23{opacity:0.51;}</style></defs><title>Artboard 1</title><path class="cls-1" d="M756.91,659.51S348.72,833.09,466.26,384.43s374-16.18,547.11-82.37,457.36-200.06,479.8,88.26S1078.56,711,992,669.81,756.91,659.51,756.91,659.51Z"/><circle class="cls-2" cx="400.75" cy="343.98" r="28.42"/><path class="cls-3" d="M539,450.6c0,67-39.86,90.45-89,90.45s-89-23.41-89-90.45,89-152.35,89-152.35S539,383.55,539,450.6Z"/><polygon class="cls-4" points="446.73 530.8 447.64 474.69 485.59 405.27 447.78 465.88 448.19 440.65 474.35 390.43 448.3 433.98 448.3 433.98 449.04 388.6 477.04 348.61 449.16 381.46 449.62 298.25 446.72 408.4 446.96 403.86 418.49 360.28 446.5 412.58 443.85 463.26 443.77 461.92 410.95 416.06 443.67 466.67 443.34 473.01 443.28 473.11 443.31 473.63 436.58 602.21 445.57 602.21 446.65 535.79 479.29 485.3 446.73 530.8"/><path class="cls-5" d="M389.93,537.24c-.22-15.81-.22-15.8,15.31-18.17,19.45-3,38.64-7.19,57.82-11.5,2.12-.47,3-3.17,5.52-2.47a40.59,40.59,0,0,0,6.45-.32c26.39-5.43,53.17-6.76,80-7.95,2.36,3,5.86,3,9.13,3.11,44,1.86,87.93,0,131.81-3.2,3.43.59,7.7-1.79,9.88,3.31.53,1.23,2.7.31,2.75-1.37.06-2.14,1.56-2.4,2.95-3h.18l17.7-.08,6.45.05.06.06c1.48,3,4.27,2.29,6.73,2.33,8.94.12,9,.09,11.08,9,.49,2.08.7,4.22,1,6.34a10.89,10.89,0,0,0-6.89-1.13c-19.54,2.26-39.21.56-58.81,2.06-15.46,1.18-31.08.24-46.63.24v-1.55c-5.23-3.48-10.94-1.08-16.44-1.23-.34,0-.72,1.58-1.09,2.43l-2.39,1.56H618.1q0-4.82,0-9.63l.61-1.33c-.06-.56.09-1.32-.22-1.65-1-1-1.28.26-1.33.7-.33,3.57-.55,7.16-.81,10.73-5.19,1.41-10.51,1-15.81,1.2-13.94.44-27.88.33-41.83.78-22.76.74-45.45,1.62-68.16,3.67-15.24,1.38-30.34,3.48-45.45,5.64-16.47,2.35-32.87,5.18-49.34,7.52-2.85.4-4.11,1.85-5.27,4A1.65,1.65,0,0,0,389.93,537.24Z"/><path class="cls-6" d="M1389.09,599.78l69.39,1.79c-15.21,2.57-30.44,2.76-45.67,3-132.13,2.17-264.27,1.89-396.4.59-27.94-.27-55.89-1.39-83.83-2-20.77-.47-41.69,1.1-62.55,1.58-51.39,1.19-102.79,1.06-154.19,1.16-60.84.11-121.69-.1-182.54-.18-1.77,0-3.54-.14-5.31-.22l15.6-6.11,1.76-.07h1.8c3.34-.11,6.68-.33,10-.33,65.51,0,131,.08,196.53,0,66.64-.12,133.25,2.69,199.89,2,21.44-.23,42.87-.93,64.3-1.42,12.09,3.56,24.07,5,35.56-2-.7,3.71,2.31,1.87,3.34,1.87,10.81,0,21.63-.19,32.45-.27q132.81-1,265.62.44c8,1.33,15.61,4.77,24.1,2.64C1382.3,601.32,1385.37,599,1389.09,599.78Z"/><path class="cls-7" d="M1139.47,510.57c2.93,0,4-1.3,3.94-4.33-.17-4.68.11-9.37.2-14.06,3,.81,2.23,3.32,2.25,5.33.08,8,.27,16.09,0,24.12-.16,4.54,1.21,6.33,6,6.1,7.44-.35,14.91.07,22.35-.14,6-.17,13.65,2.58,17.62-1.19s1.14-11.53,1.35-17.53.46-12,2.26-17.85c1.28.48.88,1.51.8,2.43a2.6,2.6,0,0,0,0,3.37q.18,23.59.37,47.2c-1.15,3.23,1.92,7.37-2.13,10-.12-2.74.75-6.16-.58-8.06-2.11-3-5.17.8-7.95.56-1.16-.1-2.35.06-3.53,0-9.38-.3-18.75-.23-28.15-.89-14.46-1-29-.52-43.55-.13-5.33.14-10.76-1-15.83-.1a63,63,0,0,1-22.38-.14c-1.63-5.21-3-10.52-4.94-15.61-2.91-7.6-7.12-10.25-15.25-10.27-10.38,0-20.77.38-31.13-.12-10.15-.48-16.08,4.7-20.22,13-.95,1.92-1.68,4-2.51,5.94A35.62,35.62,0,0,1,988,539.5c-9.91.07-19.87-.74-29.72,1.13,0-2.38,0-4.76,0-7.14a2.24,2.24,0,0,0,0-3.44l-.33-1.46c1.15-3.5,4.43-5.26,6.54-8l41.12-9.88,10.21-.48,4.2.14,0,.23v-.24h16.29c6.05.11,12.09.2,18.13.36a3.23,3.23,0,0,0,3.25-2c1.8.64,3.11,2.17,5.33,2.15C1088.53,510.73,1114,510.67,1139.47,510.57Zm-59.1,19.34c22.45,2.39,99.54,2,106.15,0C1151.12,528.15,1115.73,528.94,1080.37,529.91Z"/><path class="cls-8" d="M1139.47,510.57c-25.47.1-50.94.16-76.4.34-2.22,0-3.53-1.51-5.33-2.15-2.37-1.41-.69-2.67.32-3.6,4.63-4.3,3.51-10.64,5.76-15.76,3.65.74,7.31,1.44,11,2.23,6.47,1.4,6.46,1.42,9.75-2.26l-24.89-7.29c-6-4.28-12.37-7.28-20-6.12l-11.33-3.48c-3.08-2-4.54-6.28-9-6.15a24.37,24.37,0,0,0-2.82-2.92c-1.51-1.14-2.74-4.35-4.64-3-2.83,2.1-.19,4.26,1.35,6.11.49.6.92,1.25,1.38,1.87-9.18-2.65-18.39-5.24-27.54-8-3.42-1-6.93-2.31-10.39-1.5-4,.94-5-3.18-7.77-3.73-8.55-1.68-15.86-6.57-24.07-9.08-.57-.17-1.17-.58-1.68-.49-11.78,2.08-12.4-10.23-19-14.9-2.24-1.59,3.32-9.68,7.12-9.46,10.17.6,18.66,6.2,27.65,10.25.34.15.34,1.08.49,1.64a1.36,1.36,0,0,0-.1,1c-1.61,1.55-3.75,1.15-6.86,1,4.11,3.77,8.28,1.89,11.82,3,13,4.24,26.27,7.9,39.46,11.7,1.73.5,4.21,2.51,4.71-1.44l.45-1.18,3.2.13.57,2.21c-3,3.64.72,3.14,2.38,3.63,18.81,5.58,37.69,10.94,56.44,16.7,16.52,5.07,32.92,10.5,50.59,9,1.47,4.58.48,6.9-5,6.11-3.08-.44-6.27-.05-9.41-.06-2.38,0-4.28.37-4.27,3.45,0,2.92,1.62,3.82,4.14,3.61,7.71-.63,15.66,1.73,23.16-2.05a4.06,4.06,0,0,1,4.84.52c-5.24,10.65-5.22,11,1,13.35C1136.73,506.45,1133.25,510.71,1139.47,510.57ZM941.09,443c.9-3.31,1.51-5.73,2.24-8.11.39-1.27,1.42-2.57-.1-3.63s-3,0-4.37.52c-2,.71-1,2.23-.6,3.38C939,437.49,939.93,439.81,941.09,443Z"/><path class="cls-9" d="M543.59,599.38,528,605.49l-13.15-.06-14.22-5.85c-4.66-6.29-10.14-12.06-11.94-20.1-.43-1.9-2.61-1.19-4.06-1.24-2.52-.08-5,0-7.55,0q3.12-9.87,6.25-19.73c3.08-4.61,5.07-10.11,10.45-12.85a48.9,48.9,0,0,1,22.31-7c12.39-.71,25.2-3.8,36.61,4.28l.13.12c1.26,1.88,2.38,3.88,4.62,4.81q.72,2.29,1.42,4.59,2.29,8.12,4.57,16.22c.09,3.81.56,7.53,2.48,10.93C552.48,579.43,549.6,591.18,543.59,599.38Zm-1.49-26.8a20.6,20.6,0,0,0-20.27-20.93A20.84,20.84,0,0,0,501,572.18a20.48,20.48,0,0,0,20.11,20.45C532.86,592.81,542,584.1,542.1,572.58Z"/><path class="cls-10" d="M555,496.83c-26.81,1.19-53.59,2.52-80,7.95a40.59,40.59,0,0,1-6.45.32c30.07-12,58.48-28.16,89.83-36.85,23.61-6.55,48.14-7.43,72.46-8.88,18.83-1.12,37.73-1.48,56.6-1.74,4.5-.06,9.94-1.83,13.3,3.39l-.22.2c-1.94.88-4.37-.62-6.1,1.26a33.91,33.91,0,0,0-13-.71c-10.58.46-21.2.42-31.71,2-17.91.24-35.69,1.15-52.06,9.68a283.81,283.81,0,0,0-34.07,16.06C560.42,491.26,555.93,492.18,555,496.83Z"/><path class="cls-5" d="M838.45,491.58l8.87.28.44.13.45-.05,3.55.18c-2.3,2.63-6.1,0-8.49,2.19.12,1.32,1.07,1.33,1.76,1.32,15.05-.25,30,1.39,45,2.3,2.93.17,6,2.4,9,.16,4.61.55,9.24.92,13.8,1.71,3.49.61,6.14,2.44,6,6.58-7.45-.17-14.87.8-22.27,1-20.55.49-41.08,1.61-61.61,2.32-15.27.54-30.52,2.37-45.82,1.38-9.06-.59-18,1.49-27,1.16-2.83-.1-3.62,1.8-4.76,3.57q-1.33-6.24-2.66-12.48c-1-4.55-3.25-7.22-8.45-6.49a24.23,24.23,0,0,1-10.33-1.07l-.06-.06c.1-.9.21-1.8.31-2.7l5.71-.52c2.77,0,5.63.49,8.07-1.4a1.86,1.86,0,0,0,1-.15l3.78,1.69c-.5,2.93-.15,4.64,3.72,4.39,10.57-.67,21.17-.91,31.76-1.32l1.2,0,9.38-.07c12.3-.45,24.56-2,37.66-.47-3-3.32-7.5.21-9.34-3.66l6.27.07A2.38,2.38,0,0,0,838.45,491.58Z"/><path class="cls-9" d="M1389.09,599.78c-3.72-.77-6.79,1.54-10.13,2.38-8.49,2.13-16.13-1.31-24.1-2.63-8.63-6.53-15.48-14.28-17.47-25.37-.42-20.24,6.32-30.72,25.2-39.27,1.05-.48,2.68-1,2.9-1.79,1.41-5.1,4.75-7.07,9.78-6.79l4.72,1.27c-3.2,4.11-.59,6.12,2.91,7.37,14.14,5.06,21.58,15.52,24.51,29.76.25,1.21,0,3,2,3,1.75,0,2.23-1.33,2.6-2.71a2.19,2.19,0,0,1,1,.29c-.24.94-.44,2.68-.74,2.7-6.19.39-4.88,5.53-5.75,9.11C1404.07,587.26,1397.24,594,1389.09,599.78Zm-33.34-16.28a1.28,1.28,0,0,0,1.38,1.3l-.3.19c8.41,7.89,19.92,8.38,29.4,1.23l-.07-.12a2.77,2.77,0,0,0,2.22-1.65l1-1.06,2.69-3.62c2.41-4.57,4.73-9.14,1.86-14.39a11.82,11.82,0,0,0-1-7.35,22.82,22.82,0,0,0-36.09-6.31l-.3.16c-6.77,6.38-9,14-6.24,23a4.52,4.52,0,0,0,1.47,3.72,8,8,0,0,0,2.71,3.89l0-.16c.12.8.51,1.31,1.39,1.31Z"/><path class="cls-7" d="M1349.12,484c23.54,2.51,47.06,5.17,70.08,11,5.72,1.43,11.36,3.5,13.6,9.94-3.31,0-6.64,0-10,.11-1.88.05-4.23-.4-3.85,2.8a1.94,1.94,0,0,0-.2.82c-2.3,4.85-1.11,10-1,15,.14,5.59-1.78,8.13-7.4,7.58-4.47-12.88-13.06-20.16-27.15-20-7.27.06-14.55.27-21.8-.05-13-.56-22.38,4.57-27.82,16.54l-11.7-.08c0-.32,0-.65,0-1,2.55-7.79.6-15.79,1.13-23.67l.1-.28c28.63.47,57.2,2.46,85.87,3.25a50.48,50.48,0,0,0-9.48-3c-11.23-2.69-22.9-2.82-34.07-5.85,13.84-.15,27.52,2.07,41.32,2.65a800.08,800.08,0,0,0-86.06-7.56,7.57,7.57,0,0,1-1.17-4.58l4.16-.31h1.14c3.4-.53,8.75,3.09,9-4.2l2.33-.19C1340.38,484.73,1344.81,483.72,1349.12,484Zm56.73,11.79c1,1,2.11,1.72,4.06,0h-4a11.82,11.82,0,0,0-2.63-1.12c-12.56-2-25.07-4.55-37.72-5.67-9.29-.83-18.57-2.37-28.61-2.67,2.3,2.12,4.43,2.18,6.56,2.41,9.91,1.07,19.8,2.6,29.74,3.24C1384.18,492.6,1394.79,496,1405.85,495.74Zm19.23,4.06c-2.22-1.62-3.94-2.14-6.32-1C1420.91,499.67,1422.51,500.89,1425.08,499.8Zm-10.18-2.72-.83.38a4.07,4.07,0,0,0,.74.45c.11,0,.3-.11.45-.17Zm-1.5,9.49-.46.28a3.7,3.7,0,0,0,.76.45c.11,0,.3-.16.46-.25Z"/><path class="cls-11" d="M1195.39,491c-1.8,5.82-2.05,11.81-2.26,17.85s2.7,13.69-1.35,17.53-11.6,1-17.62,1.19c-7.44.21-14.91-.21-22.35.14-4.76.23-6.13-1.56-6-6.1.29-8,.1-16.08,0-24.12,0-2,.77-4.52-2.25-5.33-.19-4.26,3.3-6.62,5.43-9.38,10.55-13.65,21.53-27,32.41-40.37a29.26,29.26,0,0,1,3.44-3.11c3.44,1.71,7.09.54,10.64.81-.31,5.93-3,11.19-5,16.63-3.25,9.18-5.53,18.7-9.94,27.49-2.21,4.39-.76,6,4.31,6.27C1188.43,490.69,1192,489.79,1195.39,491Zm-26,35.42c5.9,0,11.8-.11,17.69,0,3.41.09,4.83-1,5-4.68.38-7.69-1.26-15.23-1.31-22.87,0-2.66-1.63-3.12-3.92-3.12-11.41,0-22.84.15-34.24-.3-3.8-.15-4.27,1.29-4.36,4.29-.2,7.43.69,14.9-1,22.3-.78,3.36,1.31,4.44,4.47,4.37C1157.59,526.35,1163.49,526.44,1169.38,526.44Z"/><path class="cls-12" d="M483.32,558.5q-3.12,9.87-6.25,19.73c-18.74-1.63-37.51-2.94-56.2-5-10.71-1.19-19.85-6-25.7-15.65,2.74-.87,4-2.31,2.95-5.46a55,55,0,0,1-1.51-7.85c2.79,2.12,3.49,5.4,3.55,8.4.1,4.92,2.56,6.07,6.76,5.7,4.67-.42,9.36-1.17,14-1.1C441.74,557.53,462.53,558.06,483.32,558.5Z"/><path class="cls-13" d="M757.36,515.78c1.14-1.77,1.93-3.67,4.76-3.57,9,.33,17.92-1.75,27-1.16,15.3,1,30.55-.84,45.82-1.38,20.53-.71,41.06-1.83,61.61-2.32,7.4-.17,14.82-1.14,22.27-1,.31,2.85.61,5.7.92,8.53,0,.43,0,.88-.06,1.33-.06,1.73-.12,3.46-.18,5.17a1.09,1.09,0,0,1,0-.85c-2.15-4.23-5.67-5.22-10.17-4.81-9.16.84-18.32-.37-27.53-.11-17.45.49-34.87,2-52.28,2.22-23.77.31-47.44,1.88-71.17,2.69C756.92,519.19,757.27,517.46,757.36,515.78Z"/><path class="cls-8" d="M964.49,520.61c-2.11,2.72-5.39,4.48-6.54,8-1.52,1.49-3.14,2.89-4.55,4.49q-10.85,12.31-21.6,24.71c-3-1.41-2.29-4.12-2.23-6.54s.19-5-2.28-6.67c3.27.39,4.82-1.93,6.61-4,17.19-20.26,34.59-40.35,51.51-60.83,4-4.88,7.76-7.19,13.79-4.52a26.12,26.12,0,0,0,4.55,1.14c-5.72,4.45-11.53,8.85-11.64,17.12-2.3-.25-4.37-.64-6.26,1.69C978.87,503.75,971.63,512.14,964.49,520.61Z"/><path class="cls-11" d="M1273.4,439c3,.35,5.2,2.65,7.94,3.65-2.29,3.32-1.28,5.85,1.56,8.38a91.67,91.67,0,0,1,6.71,7.33l-1,1-1.91-1.18-1.28-1.44c-1.07-1.82-2.91-2.18-4.77-2.5l-4.34-4.83-1.69-.94.11.06c-2.56-3-6.11-4-9.79-4.6-12.4-2.18-24.92-1.92-37.44-2-4.5,0-5.6,1.93-5.9,5.86-.49,6.4-1.4,12.77-2.14,19.15-.54-1.33,0-3.61-2-3.7-2.22-.1-1.53,2.18-2,3.52a12.68,12.68,0,0,1-1.07,2c-.93-5.77,1.82-11.46-.08-17.3l-2.27,24.24c-3.45.42-6-2.68-9.48-2.34a175,175,0,0,1,4.07-34.51c15.56-1.76,31.14-1,46.73-.43C1260.08,438.56,1266.67,441.2,1273.4,439Z"/><path class="cls-9" d="M992.11,493.45c.11-8.27,5.92-12.67,11.64-17.12,5.51-1.33,10.71.43,16,1.59l-.24-.05a2.12,2.12,0,0,0,3,1.28c1.23-.29,1.8.52,2.32,1.4-1.1.24-2.79.37-1.36,2,3.79,4.3,3.8,9.46,3,14.52-.41,2.71,1.12,3.32,2.58,4.43-6.36,0-8.23,6.78-13.28,8.75l-10.22.48C998.06,507.35,993.68,501.5,992.11,493.45Zm27.41-.1a9.52,9.52,0,0,0-19,0,9.17,9.17,0,0,0,9.13,9.37A9.6,9.6,0,0,0,1019.52,493.35Z"/><path class="cls-6" d="M500.62,599.58l14.22,5.85q-65.78.35-131.49-2.86C422.4,600,461.51,599.72,500.62,599.58Z"/><path class="cls-8" d="M901.76,547.67l11.56-1.08c-.7,3.47,1.65,6.15,2.38,9.24L859,564.6c-.3-9.06,1-11.38,7-12.29A265.79,265.79,0,0,0,901.76,547.67Z"/><path class="cls-12" d="M901.76,547.67A265.79,265.79,0,0,1,866,552.31l-1-11.7c9.07.41,17.64-3.29,26.57-3.4,6.76-.08,11.65-2.36,13.34-8.92,1.5-5.82,4.95-7.31,10.29-6.66a22.51,22.51,0,0,0,4.08-.24c-.77,2.93-3.43,2.12-5.21,2.22-4.75.27-7.13,2.31-6.78,7.18a6.74,6.74,0,0,0,0,7.24C904.77,540.84,901.72,543.37,901.76,547.67Z"/><path class="cls-7" d="M1202.62,473.26c3.44-.34,6,2.76,9.48,2.34-.17,4.49-.27,8.95-.72,13.44-.43,4.24-2.09,5.9-6.31,6.24,5.2.8,6.18,3.8,6,8.11-.31,5.67-.09,11.36-.1,17.05,0,9.87,0,9.87-9.27,9.66l-.35-36.26c.08-1.32.16-2.63.25-3.95,2.16-5.42.76-11.07,1.07-16.61Z"/><path class="cls-11" d="M1136.44,503.9c-6.18-2.35-6.2-2.7-1-13.35a4.06,4.06,0,0,0-4.84-.52c-7.5,3.78-15.45,1.42-23.16,2.05-2.52.21-4.12-.69-4.14-3.61,0-3.08,1.89-3.46,4.27-3.45,3.14,0,6.33-.38,9.41.06,5.45.79,6.44-1.53,5-6.11.14-.33.26-.66.38-1l2-2.26c8.77-4.57,15.6-.34,15.94,9.52C1140.57,491.86,1138.84,497.91,1136.44,503.9Z"/><path class="cls-14" d="M1419,507.76c-.38-3.2,2-2.75,3.85-2.8,3.31-.09,6.64-.08,10-.11,2.83,4.59,1.6,10,1.38,14.58-.28,5.89,1.42,12.07-1.68,18.07-1.41,2.71-2.33,8,4.33,8.35,3.83.23,3.3,3.64,3,6.41-8-3.08-16.48-1.62-24.75-2.11-2-.12-3.2,1.14-4.5,2.29-.15-1.87-.31-3.74-.46-5.61l.35,0,.09-.33c5.78-1.39,11.67-.74,17.5-.66,3.6,0,4.58-1.25,4.76-4.73.21-4.35-1.13-5.7-5.55-5.83-2.65-.07-7.43,3.2-8.11-3,2.55-1.39,7.3,2.71,8-3.61.8-7.32-4.41-5-7.94-5.49-.23-2.24-1.27-4.59.88-6.51,7,.16,8-.61,6.92-6C1426,505.63,1421.58,509,1419,507.76Z"/><path class="cls-15" d="M1289.61,458.34a91.67,91.67,0,0,0-6.71-7.33c-2.84-2.53-3.85-5.06-1.56-8.38,6,3.33,10,9,15.3,13.17,10.19,8,20,16.4,30.06,24.56,1.33,1.09,2.75,2.27,4.66,2.36-.52,3.85-4.46,2.77-6.46,4.48h-1.15c-6.13-1.55-10.69-5.35-14.91-9.89C1302.72,470.71,1296.78,463.89,1289.61,458.34Z"/><path class="cls-16" d="M1410.59,552.44c1.3-1.15,2.48-2.41,4.5-2.29,8.27.49,16.7-1,24.75,2.11.31,8.66-2.93,12.49-11.45,13-5.09.29-10.22,0-15.33,0a2,2,0,0,0-1-.29C1409.61,561,1410.36,556.71,1410.59,552.44Z"/><path class="cls-11" d="M915.7,555.84c-.73-3.1-3.08-5.78-2.38-9.25.34-.47.64-1,1-1.43,4.93-5.93,4.25-7.87,11-1.91a20.14,20.14,0,0,0,1.94,1.33c2.47,1.64,2.34,4.14,2.28,6.67s-.75,5.13,2.23,6.53l1.29,6.41-1,.94C923.43,567.68,919.25,562.32,915.7,555.84Z"/><path class="cls-12" d="M800.83,495.58l-9.38.08c-.41-.5-.81-.49-1.2,0-10.59.41-21.19.65-31.76,1.32-3.87.25-4.22-1.46-3.72-4.39,20.11-1,40.23-2,60.38-1.24l4.38,2c-5.18,0-8.92-.1-12.65,0C804.69,493.5,802,492.41,800.83,495.58Z"/><path class="cls-8" d="M1201.3,493.84q.18,18.12.35,36.26c0,.71,0,1.43,0,2.14q-.15,6-.29,12l-4.79-.27q-.18-23.61-.37-47.2c.17-.87.35-1.73.52-2.6Z"/><path class="cls-9" d="M750,491.06c-2.44,1.89-5.3,1.41-8.07,1.4-6-5.68-13.35-9.48-19.75-14.59-7.09-5.68-15.8-9.26-21.57-16.65l.21-.2c2.72-1,4.37,1.08,6.26,2.3,13.27,8.53,25.65,18.4,39.4,26.21C747.25,490.85,748.65,490.84,750,491.06Z"/><path class="cls-7" d="M1273.4,439c-6.73,2.22-13.32-.42-20-.66-15.59-.55-31.17-1.33-46.73.43.34-2.73,2.25-3.54,4.6-3.56,20.25-.19,40.53-.75,60.58,3A5.76,5.76,0,0,1,1273.4,439Z"/><path class="cls-10" d="M899,498.09c-3,2.24-6.07,0-9-.16-15-.91-29.94-2.55-45-2.3-.69,0-1.64,0-1.76-1.32,2.39-2.22,6.19.44,8.49-2.19l2.28.07a6,6,0,0,0,7.1.16C874.1,492.12,886.8,493.53,899,498.09Z"/><path class="cls-16" d="M907.31,538a6.74,6.74,0,0,1,0-7.24c5.18-6.83,11.88-7.2,15.13-.83C919.84,537.22,914.11,538.63,907.31,538Z"/><path class="cls-11" d="M1024.85,480.55c-.53-.88-1.1-1.69-2.33-1.4-.82-.89-1.18-2.84-3-1.28l.24.05c1-3.74-5-4.64-3.47-8.61l3-3c4.51-.13,6,4.2,9,6.15.37,3.54,3.66,4.89,5.49,7.33a13,13,0,0,1-4.61,5.49A14.4,14.4,0,0,0,1024.85,480.55Z"/><path class="cls-11" d="M1202.75,430.86c-.27,4.45-2.72,6.25-7,5.79l-11.21.06c-4.31.28-7.25-1.08-7.18-6Z"/><path class="cls-5" d="M1202.75,430.86l-25.42-.17C1185.19,421.2,1195,421.26,1202.75,430.86Z"/><path class="cls-16" d="M750,491.06c-1.3-.22-2.7-.21-3.52-1.53-.73-16.83-1.48-33.66-2.16-50.49a41.53,41.53,0,0,1,.65-10c.49,6.22,1.05,12.45,1.44,18.68q1.21,19.06,2.24,38.13c.11,2.13.66,3.81,2.39,5A1.86,1.86,0,0,1,750,491.06Z"/><path class="cls-16" d="M396.61,544.25a55,55,0,0,0,1.51,7.85c1.07,3.15-.21,4.59-2.95,5.46-2.19-2.7-4.46-5.33-6.57-8.09-2.43-3.19-1.93-5.52,2.22-6.55l4.67.22,0-.11,1.2,1.22Z"/><path class="cls-10" d="M800.83,495.58c1.13-3.17,3.86-2.08,6-2.17,3.73-.14,7.47,0,12.65,0l-4.38-2,14,.09c1.84,3.87,6.32.34,9.34,3.66C825.39,493.61,813.13,495.13,800.83,495.58Z"/><path class="cls-14" d="M922.45,530c-3.25-6.37-10-6-15.13.83-.35-4.87,2-6.91,6.78-7.18,1.78-.1,4.44.71,5.21-2.22a.63.63,0,0,0,.18-.84,1.12,1.12,0,0,0,0,.86C922.07,523.71,923.34,526.46,922.45,530Z"/><path class="cls-14" d="M1019.22,466.33l-3,3-1.77-.87c-.46-.62-.89-1.27-1.38-1.87-1.54-1.85-4.18-4-1.35-6.11,1.9-1.4,3.13,1.81,4.64,3A24.37,24.37,0,0,1,1019.22,466.33Z"/><path class="cls-8" d="M1184.51,436.71l11.21-.06c-.07,1.16-.13,2.32-.19,3.48-3.55-.27-7.2.9-10.64-.81C1184.76,438.45,1184.64,437.58,1184.51,436.71Z"/><path class="cls-11" d="M1324.9,487.2c2-1.71,5.94-.63,6.46-4.48l2.53.28C1333.65,490.29,1328.3,486.67,1324.9,487.2Z"/><path class="cls-11" d="M1202.62,473.28c-.31,5.54,1.09,11.19-1.07,16.61C1201.28,484.31,1201.26,478.75,1202.62,473.28Z"/><path class="cls-11" d="M1349.12,484c-4.31-.23-8.74.78-12.9-1.14C1340.63,481.89,1344.89,482.81,1349.12,484Z"/><path class="cls-12" d="M395.49,543.14l-4.67-.22c-.2-.83-.39-1.66-.59-2.49l.31,0,.31-.07,2.36.16C394.67,540.8,395.56,541.55,395.49,543.14Z"/><path class="cls-5" d="M861.14,492.35a6,6,0,0,1-7.1-.16Z"/><path class="cls-14" d="M919.66,516.24c0-.45,0-.9.06-1.33C919.7,515.37,919.68,515.8,919.66,516.24Z"/><path class="cls-11" d="M1196.71,494.22c-.17.87-.35,1.73-.52,2.6a2.6,2.6,0,0,1,0-3.37A.9.9,0,0,1,1196.71,494.22Z"/><path class="cls-12" d="M838.45,491.58a2.38,2.38,0,0,1-3-.06Z"/><path class="cls-16" d="M389.93,537.24a1.65,1.65,0,0,1,.61.18c.1,1,.2,2,.31,3l-.31.07-.31,0Z"/><path class="cls-12" d="M848.21,491.94l-.45.05-.44-.13A.54.54,0,0,1,848.21,491.94Z"/><path class="cls-12" d="M757.36,515.78c-.09,1.68-.44,3.41,1,4.77a92.76,92.76,0,0,1-1.74,24c-1,5.25,1.53,5.45,4.69,5,8.43-1.21,16.86-.25,25.27-.62q-1.08,5.42-2.17,10.82c-.3,2.59-2.5,3.93-3.86,5.81-16.41,3.57-33.08,4.85-49.8,4.88-40.34.07-80.62,1.12-120.78,5.43-14.64,1.56-29.23,4.08-44,3.77-1.92-3.4-2.39-7.12-2.48-10.93l-.24-9.16a19,19,0,0,1,3.93-1.07Q593.05,557.17,619,556c.34,1.33-.19,3,2,3.83.07-1.37.14-2.6.21-3.83,9.83-2,19.94-1.85,29.81-2,22.93-.42,45.76-2.57,68.69-3,10.15-.17,20.34-.93,30.52-.89,3.22,0,4.27-1.19,4.68-4.43a155.36,155.36,0,0,0,1-25.23c.1-2.42.22-4.84-1.11-7-.34-2.12-.55-4.26-1-6.34-2.11-8.93-2.14-8.9-11.08-9-2.46,0-5.25.66-6.73-2.33a24.23,24.23,0,0,0,10.33,1.07c5.2-.73,7.47,1.94,8.45,6.49Q756,509.54,757.36,515.78Zm-135.29,47.4c1.55,2.1,3.67,2,5.85,2.16,4.55.26,9-.87,13.43-1.11,26.67-1.46,53.37-2.58,80-3.77,8.53-.38,17-1.74,25.54-1.62C705.35,558.41,663.91,562.63,622.07,563.18Z"/><path class="cls-13" d="M390.85,540.39c-.11-1-.21-2-.31-3,1.16-2.12,2.42-3.57,5.27-4,16.47-2.34,32.87-5.17,49.34-7.52,15.11-2.16,30.21-4.26,45.45-5.64,22.71-2,45.4-2.93,68.16-3.67,14-.45,27.89-.34,41.83-.78,5.3-.16,10.62.21,15.81-1.2l.3,11.84c-5.69-.12-11.38.95-17,.93-18.64-.06-37.21,2.24-55.86,1.42a47,47,0,0,0-5.31.08c-23.8,1.53-47.62,2.82-71.4,4.73-12.85,1-25.76,1.09-38.56,3.08a102.26,102.26,0,0,1-21,1.14c-5.2-.28-9.67,1.24-14.35,2.69Z"/><path class="cls-13" d="M754.77,513.43c1.33,2.19,1.21,4.61,1.11,7-11.3.81-22.61,2.35-33.9,2.25-21.57-.18-43,2.69-64.53,2.63-11.34,0-22.68.68-34,1.16a22.2,22.2,0,0,0-4.51,1.12c-.16-3.94-1.65-7.79-.82-11.8h3.2c.14,2.36.32,4.64,3.54,2.34a8.82,8.82,0,0,0,5,2.51c6,1.35,8.62-3.59,12.56-6.06,15.55,0,31.17.94,46.63-.24,19.6-1.5,39.27.2,58.81-2.06A10.89,10.89,0,0,1,754.77,513.43Z"/><path class="cls-14" d="M681.41,461.77a33.91,33.91,0,0,1,13,.71l6.71,5.14,24.74,18.91c1.1,3.12,3.8,4.41,6.52,5.68l-.08,0c2.15,3.79-1.91,2.35-2.93,3.47l-17.69.08c4.45-1.82,9.48,0,14.74-2.07l-36.37-27.33-.8.82c3.79,9.44,7.58,18.87,11.66,29,1.77-2.93.39-4.92.89-6.78.43-1.59-.11-3.95,2.24-4.25,2.17-.29,1.81,2.14,2.72,3.24,1.88,2.27.59,6.57,4.73,7.35-1.39.58-2.89.84-2.95,3-.05,1.68-2.22,2.6-2.75,1.37-2.18-5.1-6.45-2.72-9.88-3.31a4,4,0,0,0-.1-.76c-1.58-9.3-5.53-17.81-8.72-26.57-1-2.9-.41-7.21-5.58-6.65A1.7,1.7,0,0,0,681.41,461.77Z"/><path class="cls-16" d="M695.85,496a4,4,0,0,1,.1.76c-43.88,3.2-87.8,5.06-131.81,3.2-3.27-.14-6.77-.07-9.13-3.11.92-4.65,5.41-5.57,8.56-7.3a283.81,283.81,0,0,1,34.07-16.06l1.46,1.24c-10.83,5.79-22.59,9.72-32.86,16.6-2.28,1.53-6.74,2.23-5.8,5.44.85,2.9,5.15,1.39,7.91,1.88,10.41.22,20.83.5,31.25.62,8.06.1,16.13,0,24.2-.06,1.09,0,2.54.32,3-1.19s-.91-1.83-2-2.35c-1.79-.88-3.73-1.95-2.95-4.39.95-3,3.62-4,6.34-4.71,4.09-1.05,3.18,5.31,7.15,5.1.38,0-1,3.23-2.75,4.38-.41.27-.53,1-1.44,2.72l53.34-2,1.85-.09A25.35,25.35,0,0,1,695.85,496Z"/><path class="cls-15" d="M711.53,495.7c-4.14-.78-2.85-5.08-4.73-7.35-.91-1.1-.55-3.53-2.72-3.24-2.35.3-1.81,2.66-2.24,4.25-.5,1.86.88,3.85-.89,6.78-4.08-10.14-7.87-19.57-11.66-29l.8-.82,36.37,27.33c-5.26,2.09-10.29.25-14.74,2.07Z"/><path class="cls-8" d="M618.1,515.82c-.83,4,.66,7.86.82,11.8-.14,9.54,1.14,19,2.27,28.39-.07,1.23-.14,2.46-.21,3.83-2.16-.78-1.63-2.5-2-3.83l-2.31-29.53-.3-11.84c.26-3.57.48-7.16.81-10.73,0-.44.37-1.72,1.33-.7.31.33.16,1.09.22,1.65-.2.45-.4.89-.61,1.33Q618.14,511,618.1,515.82Z"/><path class="cls-12" d="M642.44,514.6c-3.94,2.47-6.55,7.41-12.56,6.06a8.82,8.82,0,0,1-5-2.51l-2.33-2.34,2.39-1.56,17.53-1.2Z"/><path class="cls-16" d="M642.43,513.05l-17.53,1.2c.37-.85.75-2.44,1.09-2.43C631.49,512,637.2,509.57,642.43,513.05Z"/><path class="cls-10" d="M729.41,495.63c1-1.12,5.08.32,2.93-3.48,1.55-1,2.65.11,3.83.83-.1.9-.21,1.8-.31,2.7Z"/><path class="cls-10" d="M622.51,515.81l2.33,2.34c-3.22,2.3-3.4,0-3.54-2.34Z"/><path class="cls-13" d="M618.15,506.19c.21-.44.41-.88.61-1.33C618.56,505.31,618.36,505.75,618.15,506.19Z"/><path class="cls-9" d="M1070.34,572.78c-2.26,8.2-5.24,16-12,21.68-1.48,1.24-2.7,2.89-4.87,3-11.48,7.06-23.46,5.59-35.55,2-8.44-5.6-14.9-12.71-17.33-22.86a1.63,1.63,0,0,0-2.12-1.37c.7-2.15,2.09-4,1.22-6.66s.15-5.71,1.06-8.6c4.46-14.14,13.74-23.11,28.41-26.52-1.11-1.46-2.8-1.84-2.61-3.56,6.31-.6,12.81-1.93,17.25,4.57.18.26.71.29,1.08.41C1062.83,541.15,1069.93,554.71,1070.34,572.78Zm-17.54,9.49a6,6,0,0,0,2.34-3.48,22.07,22.07,0,0,0-5.39-28,23.21,23.21,0,0,0-29.39-.42,22.23,22.23,0,0,0-6.13,27.92,7.34,7.34,0,0,0,2.65,4l-.09,0c8.82,10.57,22,12,32.46,3.53a7.5,7.5,0,0,0,3.63-3.57Z"/><path class="cls-9" d="M545.35,599.31a1.32,1.32,0,0,1,1.8,0Z"/><path class="cls-17" d="M1337.39,574.16c-.15.12-.37.2-.46.36-6.36,11.27-6.39,11.31-16.4,2.65a8.31,8.31,0,0,0-5.86-2.16c-13.56.11-27.13,0-40.69.3-3.46.08-6.78.45-10.3-.14-4.87-.82-9.76-.34-13.92,3.1a8.08,8.08,0,0,1-5.45,1.85c-10-.16-20-.1-30.08-.21a40,40,0,0,1-21.11-6.58c0-.68.05-1.36.08-2l1.2-1.68a4.57,4.57,0,0,0,.44-3.78c.73-2.1.52-3.94-1.46-5.29a3.21,3.21,0,0,0-.29-1.09l1.56-.12c.61.34,1.24.13,1.29-.46.1-1.15-.59-1.68-1.76-1.49-1.9-1.27-1.25-2.36.25-3.38,4-2.61,1-6.75,2.13-10l4.79.27c.32,5.45-.86,11.08,2,16.2-1.22,8.85-.49,9.81,7.56,9.81h110.19c7.21,0,8.67-2.67,5.37-9.83.48-1.7,1-3.4,1.43-5.1l5-13.72c3.07-3,5.17-6.79,9.67-8.55,5.12-2,10-4.23,15.66-4.37,3.4-.08,5.89-2.27,8.38-4.29-5.12-3.25,1.72-3.72,1.37-5.86l10.81-.07c.27,3.25,1.48,6.91-3.5,7.8-5-.28-8.37,1.69-9.78,6.79-.22.81-1.85,1.31-2.9,1.79C1343.71,543.44,1337,553.92,1337.39,574.16Z"/><path class="cls-11" d="M1194.43,554c-1.5,1-2.15,2.11-.25,3.38.16.65.31,1.3.47,2l-1.56.12c-20.38,0-40.76.15-61.14.12-17.44,0-34.88-.2-52.31-.31-2-1-3.26-3.22-5.79-3.23l-.09,0c.66-3.72-1.6-7.08-1.3-10.75a63,63,0,0,0,22.38.14c5.07-.89,10.5.24,15.83.1,14.51-.39,29.09-.87,43.55.13,9.4.66,18.77.59,28.15.89,1.18,0,2.37-.12,3.53,0,2.78.24,5.84-3.58,7.95-.56C1195.18,547.84,1194.31,551.26,1194.43,554Zm-17.57-.13c1.47-.11,3.13-.13,3-2s-1.76-1.83-3.14-1.81-3.1-.16-3.2,1.68C1173.43,554.06,1175.46,553.7,1176.86,553.87Z"/><path class="cls-11" d="M958.3,540.63c9.85-1.87,19.81-1.06,29.72-1.13a35.62,35.62,0,0,0,10.39-1.26c.44,4.81-2.06,9.35-1.36,14.18l0,0c-1.84.74-2.37,2.25-2.36,4.06-1.66,2.57-4.44,3.09-7.08,3.87l-24.16.05-5-3.78A89.4,89.4,0,0,1,958.3,540.63Z"/><path class="cls-9" d="M1029.15,485.3a13,13,0,0,0,4.61-5.49c2.13-1,4.72-1.32,5.84-3.85,7.66-1.16,14,1.84,20,6.12a10.52,10.52,0,0,0,4.19,7.32c-2.25,5.12-1.13,11.46-5.76,15.76-1,.93-2.69,2.19-.32,3.6a3.23,3.23,0,0,1-3.25,2c-6-.16-12.08-.25-18.13-.36.23-.71,3.73,0,1-1.82a37.21,37.21,0,0,1-7.42-7C1028.19,496.24,1028.68,490.77,1029.15,485.3Zm25.83,8.52a9.53,9.53,0,0,0-19-1.33,9.45,9.45,0,0,0,9.12,10.22A9.56,9.56,0,0,0,1055,493.82Z"/><path class="cls-5" d="M997.05,552.42c-.7-4.83,1.8-9.37,1.36-14.18.83-2,1.56-4,2.51-5.94,4.14-8.34,10.07-13.52,20.22-13,10.36.5,20.75.1,31.13.12,8.13,0,12.34,2.67,15.25,10.27,2,5.09,3.31,10.4,4.94,15.61-.3,3.67,2,7,1.3,10.75-2.31-1.24-2.65-3.71-3.43-5.81-1.95-5.23-3.71-10.53-5.54-15.8-3.84-9.69-6.16-11.31-16.27-11.27-2.11,0-4.23.17-6.35.26l-10,0-2.12,0-2.31,0-9.5,0-2.54.68c-6.53,1.76-9.64,6.74-11.86,12.57C1000.37,541.35,1000.35,547.6,997.05,552.42Z"/><path class="cls-13" d="M1080.37,529.91c35.36-1,70.75-1.76,106.15,0C1179.91,531.91,1102.82,532.3,1080.37,529.91Z"/><path class="cls-11" d="M958.29,533.49c0-1.15,0-2.29,0-3.44A2.24,2.24,0,0,1,958.29,533.49Z"/><polygon class="cls-9" points="1020.02 510.39 1020.08 510.38 1020.06 510.62 1020.02 510.39"/><path class="cls-18" d="M941.09,443c-1.16-3.15-2.09-5.47-2.83-7.84-.37-1.15-1.41-2.67.6-3.38,1.4-.49,2.87-1.58,4.37-.52s.49,2.36.1,3.63C942.6,437.23,942,439.65,941.09,443Z"/><path class="cls-10" d="M616.7,526.48,619,556q-25.95,1.2-51.89,2.43a19,19,0,0,0-3.93,1.07c-2-2-.77-6-4.33-7.06q-.71-2.3-1.42-4.59c-.37-2.73-1.62-4.61-4.62-4.81l-.13-.12c-1-4.62-5-5.07-8.51-5.82-12.25-2.61-24.48-1.37-36.55,1.22-5.15,1.11-11.06,1.46-13.86,7.32-5.38,2.74-7.37,8.24-10.45,12.85-20.79-.44-41.58-1-62.37-1.25-4.67-.07-9.36.68-14,1.1-4.2.37-6.66-.78-6.76-5.7-.06-3-.76-6.28-3.55-8.4h.12l-1.2-1.22,0,.11c.07-1.59-.82-2.34-2.28-2.59,4.68-1.45,9.15-3,14.35-2.69a102.26,102.26,0,0,0,21-1.14c12.8-2,25.71-2.05,38.56-3.08,23.78-1.91,47.6-3.2,71.4-4.73a47,47,0,0,1,5.31-.08c18.65.82,37.22-1.48,55.86-1.42C605.32,527.43,611,526.36,616.7,526.48Z"/><path class="cls-16" d="M542.1,572.58c-.13,11.52-9.24,20.23-21,20A20.48,20.48,0,0,1,501,572.18a20.84,20.84,0,0,1,20.8-20.53A20.6,20.6,0,0,1,542.1,572.58Zm-29.5,8.11-.13.09c.54-.27,1.68.1,1.26-1.19.16-.8.31-1.6.47-2.4,2.65,1.39,3.85-.6,3.67-2.4-.29-2.95-3.24-1.76-5.09-2.28l-7,.28c0-3.83.56-7.17,5.75-6.18l-.09-.06c1.81,2.21,4.25,3.84,6.91,2.65,2.34-1,.64-3.34.16-5.09-.5-2.18-1-4.36-1.51-6.54,4.88-3,6.62-.63,7,4.07.23.8.45,1.6.68,2.4-2.06.64-3.22,2-1.53,3.76,2.21,2.31,3.71.22,5.1-1.43,2.62-.06,3.76-2.84,6.15-3.33,1.37-.31,1.08-1,.45-1.82L531.46,559a2.09,2.09,0,0,0-2.42-1.77l.07,0c-5-4.07-12.56-3.51-16.48,1.22l0-.09c-1,0-2,.08-2.42,1.26l.08-.07-1.24,1.24.07-.08c-1.22.4-1.29,1.39-1.27,2.43l.14,0c-4.76,3.81-5.36,11.61-1.26,16.48l-.07-.07a2.18,2.18,0,0,0,1.84,2.44l.43,0,.12.42c-.19,1.91.36,3.31,2.85,3.76l-.62-4.36,0,.15Zm7.08.15q-1.36,3-2.74,6c-.76.12-1.93,0-2.22.41-.89,1.35.56,1.54,1.34,1.83,5.36,2,10.29,1.2,15.89-2.75-3.5-.32-3.66-3.37-5.93-4.19l-.48-1.08c-.15-2.15-.27-4.65-3.12-4.6C519.87,576.52,520,579,519.68,580.84Zm16.46-.16h-.21c4.48-4.55,4.82-8.29.9-16.83.71,5.52-2.33,6.17-5.72,6.52-1.92.2-4.29.16-5.05,2.31-.84,2.39,1.58,3.26,3,4.53l6.05,3.68.67,1.35Z"/><path class="cls-5" d="M493.77,545.65c2.8-5.86,8.71-6.21,13.86-7.32,12.07-2.59,24.3-3.83,36.55-1.22,3.49.75,7.52,1.2,8.51,5.82-11.41-8.08-24.22-5-36.61-4.28A48.9,48.9,0,0,0,493.77,545.65Z"/><path class="cls-5" d="M558.86,552.45c3.56,1.06,2.31,5.06,4.33,7.06l.24,9.16Q561.15,560.56,558.86,552.45Z"/><path class="cls-5" d="M552.82,543.05c3,.2,4.25,2.08,4.62,4.81C555.2,546.93,554.08,544.93,552.82,543.05Z"/><path class="cls-15" d="M736.17,493c-1.18-.72-2.28-1.82-3.83-.83l.08.06c-.28-4.06-3.91-4.28-6.52-5.68l-24.74-18.91-6.71-5.14c1.73-1.88,4.16-.38,6.1-1.26,5.78,7.39,14.49,11,21.58,16.65,6.4,5.11,13.77,8.91,19.75,14.59Z"/><path class="cls-14" d="M599.1,474.71l-1.46-1.24c16.37-8.53,34.15-9.44,52.06-9.68l3.41,1C634.68,465.76,616.16,466.27,599.1,474.71Z"/><path class="cls-16" d="M653.11,464.8l-3.41-1c10.51-1.6,21.13-1.56,31.71-2a1.7,1.7,0,0,1,.14,1C672.15,464.56,662.61,464.4,653.11,464.8Z"/><path class="cls-10" d="M790.25,495.67c.39-.5.79-.51,1.2,0Z"/><path class="cls-14" d="M1351.84,578.55a4.52,4.52,0,0,1-1.47-3.72c1.82-1.76.72-4.11,1.24-6.11.58-2.19.46-5.13,3.29-5.69,3-.6,3-.95.4-2.35-1.74-.93-.68-2.33-.16-3.56.71-1.68,2.84-3,1.47-5.24a3,3,0,0,1,.31-.15c5.18-.94,10.35-3.06,15.42.58,1.37,1,2.85.44,4.22-.72,3-2.56,5.94-1.67,8.07,1.21,2.36,3.17,6.22,5.49,6,10.27-.09,2.1,1.64,2.36,3.32,2.31,2.87,5.25.55,9.82-1.85,14.39-2.57,0-2.88,1.61-2.7,3.62-.34.35-.68.71-1,1.06-1.17,0-2.15.2-2.22,1.65l.07.12c-1.88-1-3.37.21-4.93.86-6.49,2.73-12.88,2.1-19.21-.51-1.71-.71-3-2.68-5.26-1.58l.3-.19a1.29,1.29,0,0,0-1.38-1.3l.22.09a1.36,1.36,0,0,0-1.39-1.31l0,.16C1355.23,580,1354,579,1351.84,578.55Zm12.65-.09c1.22,2.64,3.56,2.48,5.89,2.37,5.87,2,10,.37,11.91-4.69,3.31-1.2,3.57-3.49,3.27-6l-1.52-.54q-.93,3.2-1.87,6.39a30.36,30.36,0,0,1-11.74,4.75,7.13,7.13,0,0,0-5.9-2.36c-.39-3.32-3.62-4.81-4.83-7.61C1359.57,574.44,1360.07,577.69,1364.49,578.46Zm10-5.37c-1.79-.76-3-1-4.27.08C1371.48,574.2,1372.71,574.19,1374.5,573.09Zm-1.73,3.24c-.33.19-.82.31-.88.55a1.06,1.06,0,0,0,.36,1,.76.76,0,0,0,1.15-.74C1373.4,576.86,1373,576.59,1372.77,576.33Z"/><path class="cls-17" d="M1410.59,552.44c-.23,4.27-1,8.6,1.47,12.56-.37,1.37-.85,2.69-2.6,2.7-2.08,0-1.8-1.78-2-3C1404.48,550.47,1397,540,1382.9,535c-3.5-1.25-6.11-3.26-2.91-7.37a50.64,50.64,0,0,1,27.24,9.4c1.7,3.07.34,7,2.9,9.85C1410.28,548.7,1410.44,550.57,1410.59,552.44Z"/><path class="cls-6" d="M1407.23,537a50.64,50.64,0,0,0-27.24-9.4l-4.72-1.27c5-.89,3.77-4.55,3.5-7.8l11.93-.27C1401.46,521.14,1406.19,526.5,1407.23,537Z"/><path class="cls-19" d="M1394,565.38c-1.68,0-3.41-.21-3.32-2.31.21-4.78-3.65-7.1-6-10.27-2.13-2.88-5-3.77-8.07-1.21-1.37,1.16-2.85,1.7-4.22.72-5.07-3.64-10.24-1.52-15.42-.58A22.81,22.81,0,0,1,1393,558,11.82,11.82,0,0,1,1394,565.38Zm-20.58-16.58a5.66,5.66,0,0,0-.82-.48s-.34.3-.31.38a4.76,4.76,0,0,0,.5.79Z"/><path class="cls-19" d="M1356.61,551.88c1.37,2.27-.76,3.56-1.47,5.24-.52,1.23-1.58,2.63.16,3.56,2.62,1.4,2.65,1.75-.4,2.35-2.83.56-2.71,3.5-3.29,5.69-.52,2,.58,4.35-1.24,6.11C1347.59,565.86,1349.84,558.26,1356.61,551.88Z"/><path class="cls-19" d="M1356.83,585c2.24-1.1,3.55.87,5.26,1.58,6.33,2.61,12.72,3.24,19.21.51,1.56-.65,3-1.89,4.93-.86C1376.75,593.37,1365.24,592.88,1356.83,585Z"/><path class="cls-19" d="M1351.84,578.55c2.19.4,3.39,1.49,2.71,3.89A8,8,0,0,1,1351.84,578.55Z"/><path class="cls-19" d="M1389.41,583.39c-.18-2,.13-3.66,2.7-3.62Z"/><path class="cls-19" d="M1386.16,586.1c.07-1.45,1-1.68,2.22-1.65A2.77,2.77,0,0,1,1386.16,586.1Z"/><path class="cls-19" d="M1354.58,582.28a1.36,1.36,0,0,1,1.39,1.31C1355.09,583.59,1354.7,583.08,1354.58,582.28Z"/><path class="cls-19" d="M1355.75,583.5a1.29,1.29,0,0,1,1.38,1.3A1.29,1.29,0,0,1,1355.75,583.5Z"/><path class="cls-13" d="M1365.51,497c11.17,3,22.84,3.16,34.07,5.85a50.48,50.48,0,0,1,9.48,3c-28.67-.79-57.24-2.78-85.87-3.24-.4-2.66-.79-5.32-1.19-8,10.25-.9,20.37,1.5,30.6,1.17,3.81,2.16,8,.77,12,1.18l.48,0Z"/><path class="cls-10" d="M1407.23,537c-1-10.48-5.77-15.84-16.53-18.74l-.84-1.21c-9.2-2.82-18.62-.67-27.93-1.18-3.21-.18-6.69-1-9.68,1.19l-.76,1.24c-12.9,2.46-16.52,12.3-18.61,23.37l-5,13.72c-.3-3.6,1-6.93,1.83-10.32,2.56-10.19,2.57-10.19-7.82-10.39,0-.35,0-.7,0-1,2.26,0,4.53-.13,6.79-.06,2.52.07,4-.81,3.86-3.56.36-.8.71-1.61,1.06-2.41,5.44-12,14.83-17.1,27.82-16.54,7.25.32,14.53.11,21.8.05,14.09-.12,22.68,7.16,27.15,20-2.36,5.15,1.2,10.24.14,15.38l-.09.33-.35,0C1407.57,544,1408.93,540.05,1407.23,537Z"/><path class="cls-11" d="M1410.57,546.52c1.06-5.14-2.5-10.23-.14-15.38,5.62.55,7.54-2,7.4-7.58-.14-5-1.33-10.13,1-15,2.29,2.41.8,5.43,1.3,8.13-2.15,1.92-1.11,4.27-.89,6.5a11.8,11.8,0,0,1,0,9.11c.68,6.18,5.46,2.91,8.11,3,4.42.13,5.76,1.48,5.55,5.83-.18,3.48-1.16,4.77-4.76,4.73C1422.24,545.78,1416.35,545.13,1410.57,546.52Z"/><path class="cls-11" d="M1289.61,458.34c7.17,5.55,13.11,12.37,19.23,19,4.22,4.54,8.78,8.34,14.91,9.89l-4.15.31c-2.44,1.64.15,4.27-1.21,6.12l-2.32,0-3.52,0-1.61-.11c3-4.46-.51-6.9-3-9.65-.37-.42-.73-.85-1.09-1.27l-1.06-1.26-1.1-1.39-1.58-1.87a10.8,10.8,0,0,0-4.41-5l-1-1.39-1.67-1.83a15,15,0,0,0-5.65-6.17l-1.17-1.24c-.16-1-.33-2-.49-3.05Z"/><path class="cls-11" d="M1365.51,497H1365l-.48,0c-3.78-2.45-8-.77-12-1.18-10.23.33-20.35-2.07-30.6-1.17a2.89,2.89,0,0,1-1.23-2.52,800.08,800.08,0,0,1,86.06,7.56C1393,499.07,1379.35,496.85,1365.51,497Z"/><path class="cls-12" d="M1320.77,492.09a2.89,2.89,0,0,0,1.23,2.52c.4,2.66.79,5.32,1.19,8l-.1.27c-2.51,7.79-.5,15.79-1.13,23.67q0,.5,0,1l-1.14,2.52c-.08,1.34-.06,2.64,1.13,3.58,0,.34,0,.69,0,1-1.66-.36-2.34,2.88-3.42,1.68-2.53-2.83-5.52-1.36-8.25-1.55-10.34-.72-20.78,1.07-31.07-1.21a1.79,1.79,0,0,1,.23-1.13c11.35-.62,22.65.58,34,1,2.72.11,5.76.46,6.21-3.55l0-2.33c2.24-8.59.89-17.31,1-26,.26-3,0-5.78-2.28-8,1.36-1.85-1.23-4.48,1.21-6.12A7.57,7.57,0,0,0,1320.77,492.09Z"/><path class="cls-11" d="M1405.85,495.74c-11.06.29-21.67-3.14-32.64-3.84-9.94-.64-19.83-2.17-29.74-3.24-2.13-.23-4.26-.29-6.56-2.41,10,.3,19.32,1.84,28.61,2.67,12.65,1.12,25.16,3.67,37.72,5.67a11.82,11.82,0,0,1,2.63,1.12Z"/><path class="cls-5" d="M1420.1,516.71c-.5-2.7,1-5.72-1.3-8.13a1.94,1.94,0,0,1,.2-.82c2.58,1.28,7-2.13,8,3C1428.09,516.1,1427.09,516.87,1420.1,516.71Z"/><path class="cls-11" d="M1320.82,530l1.14-2.52,11.7.07c-.35.8-.7,1.61-1.06,2.41Z"/><path class="cls-11" d="M1322,526.53c.63-7.88-1.38-15.88,1.13-23.67C1322.56,510.74,1324.51,518.74,1322,526.53Z"/><path class="cls-11" d="M1425.08,499.8c-2.57,1.09-4.17-.13-6.32-1C1421.14,497.66,1422.86,498.18,1425.08,499.8Z"/><path class="cls-11" d="M1405.87,495.71h4c-2,1.75-3,1-4.06,0Z"/><path class="cls-11" d="M1414.9,497.08l.36.66c-.15.06-.34.21-.45.17a4.07,4.07,0,0,1-.74-.45Z"/><path class="cls-13" d="M1413.4,506.57l.76.48c-.16.09-.35.29-.46.25a3.7,3.7,0,0,1-.76-.45Z"/><path class="cls-7" d="M1169.38,526.44c-5.89,0-11.79-.09-17.68,0-3.16.07-5.25-1-4.47-4.37,1.71-7.4.82-14.87,1-22.3.09-3,.56-4.44,4.36-4.29,11.4.45,22.83.3,34.24.3,2.29,0,3.91.46,3.92,3.12,0,7.64,1.69,15.18,1.31,22.87-.18,3.68-1.6,4.77-5,4.68C1181.18,526.33,1175.28,526.44,1169.38,526.44Z"/><path class="cls-10" d="M786.56,548.89c-8.41.37-16.84-.59-25.27.62-3.16.45-5.68.25-4.69-5a92.76,92.76,0,0,0,1.74-24c23.73-.81,47.4-2.38,71.17-2.69,17.41-.23,34.83-1.73,52.28-2.22,9.21-.26,18.37,1,27.53.11,4.5-.41,8,.58,10.17,4.81a.62.62,0,0,1-.18.83,22.51,22.51,0,0,1-4.08.24c-5.34-.65-8.79.84-10.29,6.66-1.69,6.56-6.58,8.84-13.34,8.92-8.93.11-17.5,3.81-26.57,3.4-1.95-6.11-4.14-12.08-9.78-15.93a1.94,1.94,0,0,0-2.32-1.72l-.12-.08c-1.69-3.08-4.88-3.4-7.68-3.41-9,0-18.07-1-27.08.8-5.71,1.12-11.82,1-15.89,6.21l-.06.06L801,527.63l-.11.1c-3,.09-4.25,2.49-5.83,4.45C791,537.15,788.68,543,786.56,548.89Z"/><path class="cls-16" d="M1219.5,466.87c.74-6.39,1.65-12.76,2.14-19.16.3-3.93,1.4-5.9,5.9-5.86,12.52.1,25-.16,37.44,2,3.68.64,7.23,1.57,9.79,4.6-2,.57-3.24-1.06-4.79-1.72-2.92-1.23-3.41.48-3.68,2.68h-1.14c-1-1.27-3.19-.44-4-2.15l-3.45.05-8-.17c.16-1.42,2.18-3.53-1.4-3.52-7.42,0-14.84,0-22.27,0-2.63,0-2.55,1.81-2.33,3.67a130.13,130.13,0,0,0-2.35,31.26c-1.69,1.8-1.06,4.05-1.1,6.13-.07,4.23,1.64,5.41,5.3,2.86a7.18,7.18,0,0,1,1-.1l8.45-.06c1.31,2.53,2.75.78,4.16.13l3.65.07c2,4,5.44,1.75,8.32,2,7.6.27,15.21.41,22.79.87,3.44.21,4.5-1.09,4.32-4.33-.28-4.86-.3-9.73-.42-14.6q.13-7.75.26-15.51l2.52-1.81c1.86.32,3.7.68,4.77,2.5a4.66,4.66,0,0,0-.3,3.83.43.43,0,0,0,0,.7l-.27,4.2A2.52,2.52,0,0,0,1285,468c-.36,5-.56,10,.46,15-1.62,2.66-1.36,5.37-.21,8.1-2,2.23-4.81.26-7.07,1.25l-58.93-2.63-.06-17.82C1219.29,470.24,1219.39,468.55,1219.5,466.87Z"/><path class="cls-7" d="M1219.24,489.74l58.93,2.63c0,.31-.08.62-.1.93-21.55.22-43.12-.73-64.64,1.36-.86-8.71,0-17.36,1-26a12.68,12.68,0,0,0,1.07-2c.45-1.34-.24-3.62,2-3.52,2,.09,1.46,2.37,2,3.7-.11,1.69-.21,3.38-.32,5.07A27.44,27.44,0,0,0,1219.24,489.74Z"/><path class="cls-12" d="M1214.45,468.66c-1,8.64-1.88,17.29-1,26-.06.34-.11.69-.16,1-2.7,8.55-.66,17.32-1.11,26-.16,3.17-1.11,6.63,1.13,9.6,0,.31,0,.63,0,.94-.38,9.44-.46,18.86,1.07,28.23a1.39,1.39,0,0,1-1.06,0c-2.11-5.7-.89-11.63-1.26-17.45-.66-10.41-.66-10.41-10.44-10.74,0-.71,0-1.43,0-2.14,9.27.21,9.26.21,9.27-9.66,0-5.69-.21-11.38.1-17.05.23-4.31-.75-7.31-6-8.11,4.22-.34,5.88-2,6.31-6.24.45-4.49.55-9,.72-13.44q1.14-12.12,2.27-24.24C1216.27,457.2,1213.52,462.89,1214.45,468.66Z"/><path class="cls-9" d="M1285.45,483c-1-5-.82-10-.46-15a2.29,2.29,0,0,0-.13-2.64l.27-4.19a.65.65,0,0,0,0-.71,4.66,4.66,0,0,1,.3-3.83c.42.48.85,1,1.28,1.43l1,4.57.06,3.5a12.39,12.39,0,0,0,0,11.86c-.39,1.59-.77,3.18-1.15,4.77A4,4,0,0,0,1285.45,483Z"/><path class="cls-17" d="M1280.69,454.18l-2.52,1.8c-4.1-1.91-7.09-5.86-11.87-6.55.27-2.2.76-3.91,3.68-2.68,1.55.66,2.8,2.29,4.79,1.72l-.11-.06c0,1.23.79,1.23,1.69.94Z"/><path class="cls-16" d="M1287.7,462.68l-1-4.57,1.91,1.19c.16,1,.33,2,.49,3.05l-.22.25Z"/><path class="cls-16" d="M1276.35,449.35c-.9.29-1.64.29-1.69-.94Z"/><path class="cls-14" d="M1019.52,493.35a9.6,9.6,0,0,1-9.9,9.38,9.17,9.17,0,0,1-9.13-9.37,9.52,9.52,0,0,1,19,0Zm-7.43,2.32c.8-1.68,1.22-3.3-.53-4.73a2.33,2.33,0,0,0-3.19,0c-1.78,1.38-1.25,3.06-.5,4.74-1.48.28-3.07.88-1.53,2.52s3.56,2.77,5.74,1.43C1013.81,498.57,1014.51,497,1012.09,495.67Z"/><path class="cls-8" d="M1030,501.61h-.43l-.42-.12c-1.46-1.11-3-1.72-2.58-4.43.76-5.06.75-10.22-3-14.52-1.43-1.63.26-1.76,1.36-2a14.32,14.32,0,0,1,4.31,4.75C1028.68,490.77,1028.19,496.24,1030,501.61Z"/><path class="cls-18" d="M1019.49,477.87c1.85-1.56,2.21.39,3,1.28A2.12,2.12,0,0,1,1019.49,477.87Z"/><path class="cls-9" d="M855.25,524.68c5.64,3.85,7.83,9.82,9.78,15.93l1,11.7c-6,.91-7.26,3.23-7,12.29-2.64,3.13-5.07,6.45-7.95,9.34-14.72,14.77-38.89,12.95-50.73-4.16-2.92-4.21-5.53-5.77-10.46-4.57-3,.72-6.23.25-9.36.31,1.36-1.88,3.56-3.22,3.86-5.81,4.8-11,7.06-23.35,16.49-32l.11-.1c.82.09,1.31-.14,1.11-1.09l.06-.06c16.56-5.72,33.39-7.73,50.65-3.6l.12.08Zm-48.31,25.74a20.53,20.53,0,1,0,20.78-20.35A20.55,20.55,0,0,0,806.94,550.42Z"/><path class="cls-5" d="M1419.17,532.32a11.8,11.8,0,0,0,0-9.11c3.54.53,8.75-1.82,8,5.5C1426.47,535,1421.72,530.93,1419.17,532.32Z"/><path class="cls-16" d="M933.09,564.19c6.68,0,12.61,3.71,19.26,3.82l6.94,2.21-.08-.07-.18,2.17c-9-2.47-18.21-3.87-26.94-7.19Z"/><path class="cls-11" d="M1201.64,532.24c9.78.33,9.78.33,10.44,10.74.37,5.82-.85,11.75,1.26,17.45l-9.95.06c-2.9-5.12-1.72-10.75-2-16.2Q1201.5,538.26,1201.64,532.24Z"/><path class="cls-12" d="M395.53,543l1.2,1.22Z"/><path class="cls-10" d="M621.19,556c-1.13-9.43-2.41-18.85-2.27-28.39a22.2,22.2,0,0,1,4.51-1.12c11.34-.48,22.68-1.19,34-1.16,21.55.06,43-2.81,64.53-2.63,11.29.1,22.6-1.44,33.9-2.25a155.36,155.36,0,0,1-1,25.23c-.41,3.24-1.46,4.44-4.68,4.43-10.18,0-20.37.72-30.52.89-22.93.39-45.76,2.54-68.69,3C641.13,554.16,631,554,621.19,556Z"/><path class="cls-8" d="M622.07,563.18c41.84-.55,83.28-4.77,124.87-4.34-8.56-.12-17,1.24-25.54,1.62-26.68,1.19-53.38,2.31-80,3.77-4.46.24-8.88,1.37-13.43,1.11C625.74,565.22,623.62,565.28,622.07,563.18Z"/><path class="cls-5" d="M800.88,527.73c-9.43,8.63-11.69,21-16.49,32q1.08-5.4,2.17-10.82c2.12-5.93,4.47-11.74,8.49-16.71C796.63,530.22,797.88,527.82,800.88,527.73Z"/><path class="cls-15" d="M684.46,496.72l-53.34,2c.91-1.76,1-2.45,1.44-2.72,1.7-1.15,3.13-4.4,2.75-4.38-4,.21-3.06-6.15-7.15-5.1-2.72.7-5.39,1.75-6.34,4.71-.78,2.44,1.16,3.51,2.95,4.39,1.07.52,2.41.79,2,2.35s-1.86,1.19-3,1.19c-8.07.06-16.14.16-24.2.06-10.42-.12-20.84-.4-31.26-.62,11.31-5.87,22.54-11.88,33.95-17.56,7.19-3.58,14.64-7,22.72-7.65,20.69-1.6,41.41-2.71,62.12-4,3.19,8.76,7.14,17.27,8.72,26.57a25.28,25.28,0,0,0-9.53.65Z"/><path class="cls-9" d="M687.13,469.41c-20.71,1.3-41.43,2.41-62.12,4-8.08.62-15.53,4.07-22.72,7.65-11.41,5.68-22.64,11.69-33.95,17.56-2.75-.49-7.05,1-7.9-1.88-.94-3.21,3.52-3.91,5.8-5.44,10.27-6.88,22-10.81,32.86-16.6,17.06-8.44,35.58-8.95,54-9.91,9.5-.4,19-.24,28.44-2C686.72,462.2,686.09,466.51,687.13,469.41Z"/><path class="cls-10" d="M725.9,486.53c2.61,1.4,6.24,1.62,6.52,5.68C729.7,490.94,727,489.65,725.9,486.53Z"/><path class="cls-14" d="M684.46,496.72l1.86-.09Z"/><path class="cls-17" d="M997.05,552.42c3.3-4.82,3.32-11.07,6.82-15.81.65.85,1.22.48,1.91,0,6.12-4.59,13.38-5.71,20.67-6.71l.07.07c-.19,1.72,1.5,2.1,2.61,3.56-14.67,3.41-24,12.38-28.41,26.52-.91,2.89-2,5.79-1.06,8.6s-.52,4.51-1.22,6.66c-1.74,4.4-5.06,7.06-10,9.14.18-4.33,1.83-8,1.34-11.75l1.08-2.85c-.13-2.1-.87-4.41-.26-6.26,1.2-3.65-1.33-2.84-3.07-3.17,2.64-.78,5.42-1.3,7.08-3.87a5.63,5.63,0,0,0,2.36-4.06Z"/><path class="cls-9" d="M990.91,569.82l-1.08,2.85c-9.47.41-19.05-2.52-28.42,1.05-.93.35-1.79-.56-2.38-1.39l.18-2.18Z"/><path class="cls-17" d="M1032.2,523.42l10,0c-.19,2.32-1,5.66,1.9,6,7.13.91,13.54,4.52,20.72,5,1.83,5.27,3.59,10.57,5.54,15.8.78,2.1,1.12,4.57,3.43,5.81l.09,0c.56,3,3.8,2.77,5.44,4.46-1.44.25-2.12,1-1.78,2.54v5.13c0,1,.08,2,.11,2.93-.47.48-.95.95-1.42,1.42l-5.86.27c-.41-18.07-7.51-31.63-25.49-37.86-.37-.12-.9-.15-1.08-.41-4.44-6.5-10.94-5.17-17.25-4.57l-.07-.07C1024.91,524.64,1031.12,526.32,1032.2,523.42Z"/><path class="cls-20" d="M1077.62,571.09c0-1-.07-2-.11-2.94q55.4-.06,110.78-.13c2.19,0,4.33.06,6.11,1.59l-1.2,1.68-88.13.07a1.39,1.39,0,0,1-2.22,0l-6.53-.09Z"/><path class="cls-6" d="M1105.07,571.36l88.13-.07c0,.68,0,1.36-.08,2-27.44.06-54.89.15-82.33.1C1108.84,573.42,1105.88,575,1105.07,571.36Z"/><path class="cls-6" d="M1077.62,571.09l18.7.21-2.85,1.46-17.27-.25C1076.67,572,1077.15,571.57,1077.62,571.09Z"/><path class="cls-17" d="M1093.47,572.76l2.85-1.46,6.53.09C1101,574.36,1099.4,574.59,1093.47,572.76Z"/><path class="cls-14" d="M1014.23,578.24a22.23,22.23,0,0,1,6.13-27.92,23.21,23.21,0,0,1,29.39.42,22.07,22.07,0,0,1,5.39,28c-3.9-.94-2.16,1.92-2.34,3.48l.08-.06-4,.92a22.16,22.16,0,0,1,1.13-5.71c2.58-8.26,6.94-16.88-3.35-23.37-.58-.37-.8-1.31-1.18-2-1.76-3.18-4.73-3.71-8-3.49-1.62.1-3.27.86-4.82.66-5.67-.72-17.15,9.1-16.93,14.74,0,.95.64,1.88.67,2.84.19,5.77,4.15,10.56,4.23,16.35-1.29-.4-2.45-1.37-3.94-.91l.09,0C1017.3,580.08,1016.64,578.58,1014.23,578.24Z"/><path class="cls-19" d="M1016.79,582.25c1.49-.46,2.65.51,3.93.91l5.68,2.88c5.67,4.12,11.52,4.14,16.9.06l1.61-1.48h.14l3.89.83.31.34C1038.79,594.26,1025.61,592.82,1016.79,582.25Z"/><path class="cls-19" d="M1048.93,583.13l4-.92a7.5,7.5,0,0,1-3.63,3.57l-.31-.33C1048.94,584.68,1048.93,583.9,1048.93,583.13Z"/><path class="cls-19" d="M1052.8,582.27c.18-1.56-1.56-4.42,2.34-3.48A6,6,0,0,1,1052.8,582.27Z"/><path class="cls-19" d="M1014.23,578.24c2.41.34,3.07,1.84,2.65,4A7.34,7.34,0,0,1,1014.23,578.24Z"/><path class="cls-11" d="M1214.4,560.44c-1.53-9.37-1.45-18.79-1.08-28.23,8.15.42,16.29,1.09,24.44,1.15,3.42,0,5.93.75,7.71,3.66,3.56-.82,8.32,2.12,10.4-3.32h9c.67,1-1.29,2.92,1.12,3.16,2.88.29,1.94-2.84,3.33-3.92.41,1.17.83,2.34,1.23,3.5,2.73,1.28,2.57-1,3.33-2.49.83-1.65-.27-4.43,2.91-5.21,1.11,2.84-2.25,5.63,0,8.15,2-.48,1.46-2.42,2.45-3.31,10.29,2.28,20.73.49,31.07,1.21,2.73.19,5.72-1.28,8.25,1.55,1.08,1.2,1.76-2,3.42-1.68,10.39.2,10.38.2,7.82,10.39-.85,3.39-2.13,6.72-1.83,10.32-.48,1.7-1,3.4-1.43,5.1Z"/><path class="cls-16" d="M1214.4,560.44l112.1,0c3.3,7.16,1.84,9.83-5.37,9.83H1210.94c-8,0-8.78-1-7.56-9.81l10-.06A1.39,1.39,0,0,0,1214.4,560.44Z"/><path class="cls-14" d="M1077.51,563c-.34-1.5.34-2.29,1.78-2.54l-.1-.06c38.06.63,76.12.41,114.19.11,2,1.35,2.19,3.19,1.46,5.29-2.53-2.06-5.54-1.68-8.47-1.68q-49.78,0-99.57,0A30.61,30.61,0,0,1,1077.51,563Z"/><path class="cls-16" d="M1077.51,563a30.61,30.61,0,0,0,9.29,1.15q49.79-.06,99.57,0c2.93,0,5.94-.38,8.47,1.68a4.57,4.57,0,0,1-.44,3.78c-1.78-1.53-3.92-1.59-6.11-1.59q-55.39.09-110.78.13Z"/><path class="cls-6" d="M1332.88,541.65c2.09-11.07,5.71-20.91,18.61-23.37l16.47.3c.35,2.14-6.49,2.61-1.37,5.86-2.49,2-5,4.21-8.38,4.29-5.63.14-10.54,2.36-15.66,4.37C1338.05,534.86,1336,538.65,1332.88,541.65Z"/><path class="cls-8" d="M1193.38,560.54c-38.07.3-76.13.52-114.19-.11l.45-1.17c17.43.11,34.87.28,52.31.31,20.38,0,40.76-.07,61.14-.12A3.21,3.21,0,0,1,1193.38,560.54Z"/><path class="cls-9" d="M1368,518.58l-16.47-.3c.25-.42.5-.83.76-1.24h37.61l.84,1.21-11.93.27Z"/><path class="cls-8" d="M1194.65,559.33c-.16-.65-.31-1.3-.47-2,1.17-.19,1.86.34,1.76,1.49C1195.89,559.46,1195.26,559.67,1194.65,559.33Z"/><path class="cls-5" d="M1176.86,553.87c-1.4-.17-3.43.19-3.3-2.13.1-1.84,1.87-1.67,3.2-1.68s3,0,3.14,1.81S1178.33,553.76,1176.86,553.87Z"/><path class="cls-5" d="M1079.64,559.26l-.45,1.17.1.06c-1.64-1.69-4.88-1.44-5.44-4.46C1076.38,556,1077.69,558.21,1079.64,559.26Z"/><path class="cls-16" d="M990.91,569.82l-31.7.33.08.07c-2.27-8.53-2-9.19,4.13-9.78l24.16-.05c1.74.33,4.27-.48,3.07,3.17C990,565.41,990.78,567.72,990.91,569.82Z"/><path class="cls-17" d="M963.42,560.44c-6.12.59-6.4,1.25-4.13,9.78L952.35,568c-1.63-5.73,3-8.14,6.07-11.35Z"/><path class="cls-5" d="M997,552.46a5.63,5.63,0,0,1-2.36,4.06C994.65,554.71,995.18,553.2,997,552.46Z"/><path class="cls-14" d="M1055,493.82a9.56,9.56,0,0,1-9.89,8.89,9.39,9.39,0,1,1,1-18.74A9.34,9.34,0,0,1,1055,493.82Zm-7.42,1.85c-.47-1.56,2.64-3,.35-4.46-1.18-.76-2.93-2-4.21-.81-1.47,1.37-1.36,3.43-.38,5.29-2.07.36-3,1.29-1.19,3,2.17,2.14,4.57,2.17,6.7,0C1050.5,497,1049.7,496,1047.56,495.67Z"/><path class="cls-6" d="M1032.2,523.42c-1.08,2.9-7.29,1.22-5.75,6.45-7.29,1-14.55,2.12-20.67,6.71-.69.51-1.26.88-1.91,0,2.22-5.83,5.33-10.81,11.87-12.57l2.53-.68,9.5,0a1.46,1.46,0,0,0,2.31,0Z"/><path class="cls-6" d="M1064.79,534.4c-7.18-.46-13.59-4.07-20.72-5-2.87-.37-2.09-3.71-1.9-6,2.12-.09,4.24-.25,6.35-.26C1058.63,523.09,1061,524.71,1064.79,534.4Z"/><path class="cls-17" d="M1018.27,523.36l-2.53.68Z"/><path class="cls-17" d="M1030.08,523.38a1.46,1.46,0,0,1-2.31,0Z"/><path class="cls-14" d="M529,577.22c-1.39-1.27-3.81-2.14-3-4.53.76-2.15,3.13-2.11,5.05-2.31,3.39-.35,6.43-1,5.72-6.52,3.92,8.54,3.58,12.28-.9,16.83a30.11,30.11,0,0,0,1.4-5.07c.16-1.51,1.56-4-1-4.36-2.13-.3-5.39-1.31-6,2.74A13.7,13.7,0,0,1,529,577.22Z"/><path class="cls-9" d="M531.46,559c1.12.74,2.24,1.48,3.35,2.23l-.45,1.82c-2.39.49-3.53,3.27-6.15,3.33a4.69,4.69,0,0,0-3.57-2.33c-.23-.8-.45-1.6-.68-2.4.35-3.07,1.15-5.6,5.15-4.37l-.07,0C529.36,558.47,530.52,558.59,531.46,559Z"/><path class="cls-9" d="M517,557.57c.5,2.18,1,4.36,1.51,6.54-2.67-.11-3.74,4.42-7.07,2.44l.09.06c-.9-1.41-3.31-1.31-3.43-3.48l-.15,0c.83-.6,1.67-1.18,1.27-2.43l-.07.08c1,.21,1.45-.2,1.24-1.24l-.08.07c1.22.36,1.87-.35,2.42-1.26l0,.09C514.1,558.32,515.3,556.9,517,557.57Z"/><path class="cls-9" d="M514.2,577.19l-.47,2.4-1.26,1.19.12-.09-1.28,1.3,0-.15-2.23.6L509,582l-.43,0-1.84-2.44.07.07c0-2.33-1.7-4.39-1-6.82l7-.28A7,7,0,0,0,514.2,577.19Z"/><path class="cls-9" d="M529,577.22a13.7,13.7,0,0,0,1.33-3.22c.58-4,3.84-3,6-2.74,2.56.36,1.16,2.85,1,4.36a30.11,30.11,0,0,1-1.4,5.07h.21a.86.86,0,0,0-1.06.22Z"/><path class="cls-9" d="M525.54,581.06l.48,1.08c2,5.55,1.57,6.16-4.28,6.08-1.7,0-3.51.18-4.8-1.38q1.38-3,2.74-6Z"/><path class="cls-14" d="M516.94,586.84c1.29,1.56,3.1,1.36,4.8,1.38,5.85.08,6.27-.53,4.28-6.08,2.27.82,2.43,3.87,5.93,4.19-5.6,3.95-10.53,4.74-15.89,2.75-.78-.29-2.23-.48-1.34-1.83C515,586.81,516.18,587,516.94,586.84Z"/><path class="cls-14" d="M517,557.57c-1.65-.67-2.85.75-4.32.92,3.92-4.73,11.46-5.29,16.48-1.22-4-1.23-4.8,1.3-5.15,4.37C523.57,556.94,521.83,554.55,517,557.57Z"/><path class="cls-14" d="M505.73,572.79c-.65,2.43,1.06,4.49,1,6.82-4.1-4.87-3.5-12.67,1.27-16.48.12,2.17,2.53,2.07,3.43,3.48C506.29,565.62,505.74,569,505.73,572.79Z"/><path class="cls-14" d="M511.39,566.55c3.33,2,4.4-2.55,7.07-2.44.48,1.75,2.18,4-.16,5.09C515.64,570.39,513.2,568.76,511.39,566.55Z"/><path class="cls-14" d="M525.54,581.06l-5.86-.22c.27-1.88.19-4.32,2.74-4.38C525.27,576.41,525.39,578.91,525.54,581.06Z"/><path class="cls-14" d="M524.64,564a4.69,4.69,0,0,1,3.57,2.33c-1.39,1.65-2.89,3.74-5.1,1.43C521.42,566,522.58,564.68,524.64,564Z"/><path class="cls-14" d="M514.2,577.19a7,7,0,0,1-1.42-4.68c1.85.52,4.8-.67,5.09,2.28C518.05,576.59,516.85,578.58,514.2,577.19Z"/><path class="cls-14" d="M509.1,582.44l2.23-.6.62,4.36C509.46,585.75,508.91,584.35,509.1,582.44Z"/><path class="cls-14" d="M512.68,558.4c-.55.91-1.2,1.62-2.42,1.26C510.67,558.48,511.63,558.36,512.68,558.4Z"/><path class="cls-14" d="M509.17,560.75c.4,1.25-.44,1.83-1.27,2.43C507.88,562.14,508,561.15,509.17,560.75Z"/><path class="cls-14" d="M531.46,559c-.94-.4-2.1-.52-2.42-1.77A2.09,2.09,0,0,1,531.46,559Z"/><path class="cls-14" d="M506.71,579.54l1.84,2.44A2.18,2.18,0,0,1,506.71,579.54Z"/><path class="cls-14" d="M512.47,580.78l1.26-1.19C514.15,580.88,513,580.51,512.47,580.78Z"/><path class="cls-14" d="M535.08,580.9a.86.86,0,0,1,1.06-.22l-.39,1.57Z"/><path class="cls-14" d="M510.34,559.59c.21,1-.2,1.45-1.24,1.24Z"/><path class="cls-14" d="M511.31,582l1.28-1.3Z"/><path class="cls-14" d="M534.36,563l.45-1.82C535.44,562,535.73,562.73,534.36,563Z"/><path class="cls-16" d="M1370.43,580.77a30.36,30.36,0,0,0,11.74-4.75l.13.12c-1.88,5.06-6,6.7-11.92,4.69Z"/><path class="cls-16" d="M1364.49,578.46c-4.42-.77-4.92-4-4.79-7.66,1.21,2.8,4.44,4.29,4.83,7.61Z"/><path class="cls-16" d="M1382.17,576q.94-3.19,1.87-6.39l1.52.54c.3,2.48,0,4.77-3.26,6Z"/><path class="cls-16" d="M1370.38,580.83c-2.33.11-4.67.27-5.89-2.37l0-.05a7.13,7.13,0,0,1,5.9,2.36Z"/><path class="cls-16" d="M1374.5,573.09c-1.79,1.1-3,1.11-4.27.08C1371.47,572.14,1372.71,572.33,1374.5,573.09Z"/><path class="cls-16" d="M1372.77,576.33c.22.26.63.53.63.78a.76.76,0,0,1-1.15.74,1.06,1.06,0,0,1-.36-1C1372,576.64,1372.44,576.52,1372.77,576.33Z"/><path class="cls-14" d="M1373.38,548.81l-.63.68a4.76,4.76,0,0,1-.5-.79c0-.08.27-.4.31-.38A4.94,4.94,0,0,1,1373.38,548.81Z"/><path class="cls-7" d="M1352.6,495.78c4,.41,8.17-1.27,12,1.18C1360.57,496.55,1356.41,497.94,1352.6,495.78Z"/><path class="cls-5" d="M1389.86,517h-37.61c3-2.2,6.47-1.37,9.68-1.19C1371.24,516.36,1380.66,514.21,1389.86,517Z"/><path class="cls-7" d="M1320.82,530l11.78,0c.15,2.75-1.34,3.63-3.86,3.56-2.26-.07-4.53,0-6.79.06C1320.76,532.68,1320.74,531.38,1320.82,530Z"/><path class="cls-5" d="M1318.39,493.63c2.29,2.24,2.54,5.06,2.28,8l-21-.22,1-4.58v.05c.41-.59.81-1.18,1.22-1.76,3-.58,5.88-2,9.07-1.7l1.61.11a2.25,2.25,0,0,0,3.52,0Z"/><path class="cls-16" d="M1310.94,493.43c-3.19-.31-6,1.12-9.07,1.7l-1.22,1.76v-.05c-5.27-.28-9.21-2.91-12.35-7l0-.09c4.76.67,9.5,1.52,14.28,1.94,2.55.23,5.91,1.91,7.56-.87,1.45-2.45-2.14-4.24-2.61-6.69l.42-.39C1310.43,486.53,1313.92,489,1310.94,493.43Z"/><path class="cls-16" d="M1290.31,463.59a15,15,0,0,1,5.65,6.17l-.3.26a12.68,12.68,0,0,1-5.63-6.16Z"/><path class="cls-16" d="M1298.68,473a10.8,10.8,0,0,1,4.41,5l-.43.39a10.71,10.71,0,0,1-4.32-5.1Z"/><path class="cls-12" d="M1316.07,493.59a2.25,2.25,0,0,1-3.52,0Z"/><path class="cls-16" d="M1303.09,478l1.58,1.87-.4.48c-.54-.65-1.08-1.3-1.61-2Z"/><path class="cls-16" d="M1296,469.76l1.67,1.83c-.15.15-.3.31-.44.48a2.17,2.17,0,0,1-1.54-2Z"/><path class="cls-16" d="M1305.77,481.25l1.06,1.26-.3.29a1.14,1.14,0,0,1-1.09-1.27Z"/><path class="cls-16" d="M1304.67,479.86l1.1,1.39-.33.28c-.77,0-1.11-.46-1.17-1.19Z"/><path class="cls-16" d="M1297.63,471.59l1,1.39-.34.3-1.15-1.21C1297.33,471.9,1297.48,471.74,1297.63,471.59Z"/><path class="cls-16" d="M1289.14,462.35l1.17,1.24-.28.27a1.09,1.09,0,0,1-1.11-1.26Z"/><path class="cls-16" d="M1306.83,482.51c.36.42.72.85,1.09,1.27l-.41.39-1-1.36Z"/><path class="cls-7" d="M1299.66,501.42l21,.22c-.15,8.67,1.2,17.39-1,26-13.22.8-26.38-1.18-39.58-.86-7.48-.23-1.41-6.46-4.41-9.89-1.84,7.06-3.46,13.32-5.08,19.57-.41-1.16-.83-2.33-1.23-3.5.12-6.92,2.82-13.33,3.91-20.05.19-1.15,1.45-2.93-.77-3.34-1.84-.35-2,1.32-2.28,2.71-.51,2.48-1.1,5-1.76,7.41-.34,1.25-1.28,2.15-2.6,1.65-1-.39-1-1.59-.77-2.57.47-2.3,1-4.58,1.46-6.88.19-.92.66-2-.81-2.31a1.79,1.79,0,0,0-2.19,1.44c-.79,3.23-1.46,6.49-2.28,9.71-.36,1.43-.56,3.37.84,3.6,7.77,1.25,3.61,5.77,2.79,9.39h-9c-.75-4.17-.87-4.29-3.46-1.9-1.06,1-2.42,2.56-3,.85-.84-2.48-.31-7,2-7.11,7.81-.2,6.91-6.15,8.25-10.69.65-2.2,1.69-5-2.17-5.29-3.11-.26-6.58-.8-7.5,3.6-.18.87-1.06,1.91,0,2.68a1.75,1.75,0,0,0,2.56-.55c.77-1,1.28-2.88,3-1.7,1.36.93.51,2.56.3,3.85-.36,2.15-.72,4.56-3.75,4.27-3.66-.35-4.56,2.36-5.76,4.82-9.56-.19-19-1.92-28.64-1.31-2,.12-4.36.09-4.31-2.67.1-5.4-1.26-10.9.87-16.19,3.91,2.64,8.28.79,12.41,1.29,4.51.55,6-1.62,5.16-5.85.44-1.45-.34-2.55-1.05-3.67l47.35,2.25Z"/><path class="cls-7" d="M1319.6,530c-.45,4-3.49,3.66-6.21,3.55-11.31-.47-22.61-1.67-34-1a4.46,4.46,0,0,1,.89-3.82C1293.41,529.12,1306.55,528.27,1319.6,530Z"/><path class="cls-16" d="M1280.32,528.63a4.46,4.46,0,0,0-.89,3.82,1.79,1.79,0,0,0-.23,1.13c-1,.89-.41,2.83-2.45,3.31-2.21-2.52,1.15-5.31,0-8.15-3.18.78-2.08,3.56-2.91,5.21-.76,1.5-.6,3.77-3.33,2.49,1.63-6.25,3.25-12.51,5.09-19.57,3,3.43-3.07,9.66,4.4,9.89C1280.14,527.38,1280.23,528,1280.32,528.63Z"/><path class="cls-11" d="M1280.32,528.63c-.09-.62-.18-1.25-.28-1.87,13.21-.32,26.37,1.66,39.59.86l0,2.33C1306.55,528.27,1293.41,529.12,1280.32,528.63Z"/><path class="cls-5" d="M852.81,522.88c-17.26-4.13-34.09-2.12-50.65,3.6,4.07-5.24,10.18-5.09,15.89-6.21,9-1.75,18.06-.83,27.08-.8C847.93,519.48,851.12,519.8,852.81,522.88Z"/><path class="cls-5" d="M855.25,524.68,852.93,523A1.94,1.94,0,0,1,855.25,524.68Z"/><path class="cls-5" d="M802.1,526.54c.2,1-.29,1.18-1.11,1.09Z"/><path class="cls-15" d="M1266.3,449.43c4.78.69,7.77,4.64,11.87,6.55q-.14,7.77-.26,15.52c-2.45-.58-3.23,1.27-3.63,2.91-2.89,11.78-10.16,16.66-22.13,14.37-2.69-1.87-5.85-.56-8.71-1.3l21.72-38.05Z"/><path class="cls-15" d="M1221.41,478.56a130.13,130.13,0,0,1,2.35-31.26l25.23.06c-1.67,3.06-3.36,6.11-5,9.19-5.57,10.42-12.83,19.89-17.34,30.9a7.18,7.18,0,0,0-1,.1A22.44,22.44,0,0,0,1221.41,478.56Z"/><path class="cls-14" d="M1226.64,487.45c4.51-11,11.77-20.48,17.34-30.9,1.65-3.08,3.34-6.13,5-9.19a3.36,3.36,0,0,1,.77-.2l8,.16c.29,2.2-1.32,3.6-2.27,5.24-6.74,11.63-13.57,23.22-20.37,34.83Z"/><path class="cls-14" d="M1265.16,449.43l-21.71,38.05-.55.11-3.65-.07c2.71-7,7.36-12.95,10.83-19.55,3.63-6.93,8.9-13,11.1-20.69C1262,449,1264.13,448.16,1265.16,449.43Z"/><path class="cls-12" d="M1299.66,501.42l-21.47-1a13,13,0,0,1-.12-7.08c0-.31.06-.62.1-.93,2.26-1,5,1,7.07-1.25l3.06-1.24c3.14,4.05,7.08,6.68,12.35,7Z"/><path class="cls-17" d="M1252.15,488.78c12,2.29,19.24-2.59,22.13-14.37.4-1.64,1.18-3.49,3.63-2.91.12,4.87.14,9.74.42,14.6.18,3.24-.88,4.54-4.32,4.33-7.58-.46-15.19-.6-22.79-.87Z"/><path class="cls-20" d="M1261.18,447.28c-2.2,7.7-7.47,13.76-11.1,20.69-3.47,6.6-8.12,12.53-10.83,19.55-1.41.65-2.85,2.4-4.16-.13,6.8-11.61,13.63-23.2,20.37-34.83,1-1.64,2.56-3,2.27-5.24Z"/><path class="cls-17" d="M1249.76,447.16a3.36,3.36,0,0,0-.77.2l-25.23-.06c-.22-1.86-.3-3.67,2.33-3.67,7.43,0,14.85,0,22.27,0C1251.94,443.63,1249.92,445.74,1249.76,447.16Z"/><path class="cls-9" d="M1221.41,478.56a22.44,22.44,0,0,1,4.2,9c-3.66,2.55-5.37,1.37-5.3-2.86C1220.35,482.61,1219.72,480.36,1221.41,478.56Z"/><path class="cls-20" d="M1288.3,489.88l-3.06,1.24c-1.15-2.73-1.41-5.44.21-8.1a4.41,4.41,0,0,1,1.14-.21c-.23,2.52,3.63,4.05,1.68,7Z"/><path class="cls-9" d="M1252.15,488.78l-.93.78c-2.88-.22-6.34,2.06-8.32-2l.55-.11C1246.3,488.22,1249.46,486.91,1252.15,488.78Z"/><path class="cls-11" d="M1219.24,489.74a27.44,27.44,0,0,1-.06-17.81Z"/><path class="cls-20" d="M1284.86,465.41a2.29,2.29,0,0,1,.13,2.64A2.54,2.54,0,0,1,1284.86,465.41Z"/><path class="cls-20" d="M1285.16,460.51a.65.65,0,0,1,0,.71A.43.43,0,0,1,1285.16,460.51Z"/><path class="cls-13" d="M1278.07,493.3a13,13,0,0,0,.12,7.08l-47.35-2.25h-16.33l-1.22-2.41,0,0c0-.34.1-.69.16-1C1235,492.57,1256.52,493.52,1278.07,493.3Z"/><path class="cls-11" d="M1214.31,506.36c-2.13,5.29-.77,10.79-.87,16.19,0,2.76,2.35,2.79,4.31,2.67,9.6-.61,19.08,1.12,28.64,1.31a.94.94,0,0,1-.1,1c-9.43,0-18.85.09-28.28.08-2.53,0-4.88,0-4.72,3.54v.13c-2.24-3-1.29-6.43-1.13-9.6.45-8.66-1.59-17.43,1.11-26l0,0c.16,2.35-.59,4.81.86,7Z"/><path class="cls-10" d="M1245.47,537c-1.78-2.91-4.29-3.64-7.71-3.66-8.15-.06-16.29-.73-24.44-1.15l0-.94v-.13l32,.08Z"/><path class="cls-17" d="M1288.27,489.79c2-2.93-1.91-4.46-1.68-7,.39-1.59.77-3.18,1.16-4.77,3.26,1.82,4.58-1.36,6.1-2.84,1.82-1.77-.84-2.94-1.78-4.19-1.29-1.72-2.86-3.23-4.31-4.83l-.06-3.5,1.22-.08a1.09,1.09,0,0,0,1.11,1.26,12.68,12.68,0,0,0,5.63,6.16,2.15,2.15,0,0,0,1.53,2.05l1.15,1.21a10.71,10.71,0,0,0,4.32,5.1c.53.66,1.07,1.31,1.61,2,.06.73.4,1.17,1.17,1.19a1.14,1.14,0,0,0,1.09,1.27c.32.46.65.91,1,1.37.46,2.45,4,4.24,2.6,6.69-1.65,2.78-5,1.1-7.56.87C1297.77,491.31,1293,490.46,1288.27,489.79Z"/><path class="cls-15" d="M1287.76,466.18c1.45,1.6,3,3.11,4.31,4.83.94,1.25,3.6,2.42,1.78,4.19-1.52,1.48-2.84,4.66-6.1,2.84A12.39,12.39,0,0,1,1287.76,466.18Z"/><path class="cls-16" d="M1012.09,495.67c2.42,1.33,1.72,2.9,0,4-2.18,1.34-4.31.09-5.74-1.43s0-2.24,1.53-2.52Z"/><path class="cls-9" d="M1012.09,495.67l-4.22,0c-.75-1.68-1.28-3.36.5-4.74a2.33,2.33,0,0,1,3.19,0C1013.31,492.37,1012.89,494,1012.09,495.67Z"/><path class="cls-16" d="M806.94,550.42A20.53,20.53,0,1,1,848,551a20.53,20.53,0,0,1-41.06-.53Zm30.54-13.24L836.22,536l.09.07a2.15,2.15,0,0,0-2.43-1.23l.08.05c-5.41-3.68-10.48-2.71-15.32,1.17l.08-.08-1.25,1.79-3,2.94c-5.27,3.79-6.28,9.4-2.72,15.12-.13,1-.34,2.11,1.1,2.43-.11,1-.18,2,1.16,2.37-.06,2.24,1.38,3.21,3.26,3.81a15.32,15.32,0,0,0,20.43-.59c-2.63.6-3.41-1.38-5.05-1.91l.12.1-1.27-2.48.07.11c-.47-2-.72-4.51-3.38-4.59-2.87-.09-2.23,2.45-2.41,4.24-2,1.61-1.94,4.11-2.7,6.25L817.67,564c-.21-1.24-.41-2.49-.61-3.72.82,0,1.14-.46,1.13-1.23l1.36-1c2.8-1.45,4.83-3.46,5-6.84a35.56,35.56,0,0,1,10.61,3.53,7.46,7.46,0,0,0,6.06,4c-.13.55-.26,1.1-.38,1.65l-.33.77.73-.37a2.79,2.79,0,0,0,1-2.64l0,.08c1.22-.4,1.23-1.41,1.22-2.44l-.19.05c3.73-4,2-8-.31-12.34.25,3.49-1.81,4.18-4.32,4.61-2.1.35-4.54.48-6.14,1.64-3.76,2.73-2.35-1.16-3.17-2.15a6,6,0,0,0,4.64-3.36c2.74-.08,4.32-2,6-3.74.33.06.65.12,1,.21l.78.39-.41-.82-1.83-.88-.79-.79-1.21-1.62Z"/><path class="cls-16" d="M1048.93,583.13c0,.77,0,1.55,0,2.32l-3.88-.84c0-.15,0-.29,0-.43l-.14.44-1.61,1.48a39.63,39.63,0,0,0-16.9-.06l-5.68-2.88c-.07-5.79-4-10.58-4.22-16.35,0-1-.63-1.89-.67-2.84-.22-5.64,11.26-15.46,16.93-14.74,1.55.2,3.2-.56,4.82-.66,3.22-.22,6.19.31,8,3.49.38.68.6,1.62,1.18,2,10.29,6.49,5.93,15.11,3.35,23.37A22.16,22.16,0,0,0,1048.93,583.13ZM1049,568c-.17-7.59-7.08-14.5-14.35-14.34s-14.22,7.06-14,14c.27,7.75,6.88,14.4,14.25,14.34C1042,581.93,1049.15,574.79,1049,568Z"/><path class="cls-14" d="M1026.4,586a39.63,39.63,0,0,1,16.9.06C1037.92,590.18,1032.07,590.16,1026.4,586Z"/><path class="cls-14" d="M1044.91,584.62l.14-.44c0,.14,0,.28,0,.43Z"/><path class="cls-16" d="M1245.47,537l-.15-5.8a4.36,4.36,0,0,0,1-3.7.94.94,0,0,0,.1-1c1.2-2.46,2.1-5.17,5.76-4.82,3,.29,3.39-2.12,3.75-4.27.21-1.29,1.06-2.92-.3-3.85-1.73-1.18-2.24.66-3,1.7a1.75,1.75,0,0,1-2.56.55c-1.07-.77-.19-1.81,0-2.68.92-4.4,4.39-3.86,7.5-3.6,3.86.32,2.82,3.09,2.17,5.29-1.34,4.54-.44,10.49-8.25,10.69-2.33.06-2.86,4.63-2,7.11.57,1.71,1.93.13,3-.85,2.59-2.39,2.71-2.27,3.46,1.9C1253.79,539.14,1249,536.2,1245.47,537Z"/><path class="cls-16" d="M1264.87,533.7c.82-3.62,5-8.14-2.79-9.39-1.4-.23-1.2-2.17-.84-3.6.82-3.22,1.49-6.48,2.28-9.71a1.79,1.79,0,0,1,2.19-1.44c1.47.28,1,1.39.81,2.31-.48,2.3-1,4.58-1.46,6.88-.19,1-.27,2.18.77,2.57,1.32.5,2.26-.4,2.6-1.65.66-2.45,1.25-4.93,1.76-7.41.29-1.39.44-3.06,2.28-2.71,2.22.41,1,2.19.77,3.34-1.09,6.72-3.79,13.13-3.91,20.05-1.4,1.08-.46,4.21-3.34,3.92C1263.58,536.62,1265.54,534.66,1264.87,533.7Z"/><path class="cls-16" d="M1047.56,495.67c2.14.31,2.94,1.35,1.27,3.05-2.13,2.18-4.53,2.15-6.7,0-1.77-1.75-.88-2.68,1.19-3Z"/><path class="cls-9" d="M1047.56,495.67l-4.24,0c-1-1.86-1.09-3.92.38-5.29,1.28-1.2,3,.05,4.21.81C1050.2,492.69,1047.09,494.11,1047.56,495.67Z"/><path class="cls-12" d="M1300.65,496.89l1.22-1.76C1301.46,495.71,1301.06,496.3,1300.65,496.89Z"/><path class="cls-17" d="M1214.31,506.36c0-1.21-.11-2.42-.16-3.63.13-.76.27-1.52.41-2.28,5.64,2.06,11.35,3.39,17.32,1.35.87,4.23-.65,6.4-5.16,5.85C1222.59,507.15,1218.22,509,1214.31,506.36Z"/><path class="cls-9" d="M1231.88,501.8c-6,2-11.68.71-17.32-1.35,0-.77,0-1.54,0-2.31h16.33C1231.54,499.25,1232.32,500.35,1231.88,501.8Z"/><path class="cls-12" d="M1214.51,498.14c0,.77,0,1.54,0,2.31-.14.76-.28,1.52-.41,2.28-1.45-2.19-.7-4.65-.86-7Z"/><path class="cls-7" d="M1246.29,527.52a4.36,4.36,0,0,1-1,3.7l-32-.08c-.16-3.51,2.19-3.54,4.72-3.54C1227.44,527.61,1236.86,527.55,1246.29,527.52Z"/><path class="cls-14" d="M829.24,547.71c.82,1-.59,4.88,3.17,2.15,1.6-1.16,4-1.29,6.14-1.64,2.51-.43,4.57-1.12,4.32-4.61,2.34,4.34,4,8.3.31,12.34-.31-2.23,1.54-4.94-.56-6.54-1-.75-3.4,0-5,.52-2.17.75-.83,3.64-2.48,4.88a35.56,35.56,0,0,0-10.61-3.53l0,0c.47-3.57-4.54-2.71-4.67-5.8l3.33-2.62c2.65.88,1.88,6,6.1,4.91Z"/><path class="cls-9" d="M839.92,540.61c-1.72,1.71-3.3,3.66-6,3.74l-4.54-3.76c.28-.83.56-1.66.85-2.49-.11-2.66,1.74-3.06,3.77-3.25l-.08-.05c.28,1.46,1.23,1.59,2.43,1.23l-.09-.07c-.28,1.14.49,1.17,1.26,1.22l-.05-.08,1.21,1.62.79.79C839.59,539.88,839.76,540.24,839.92,540.61Z"/><path class="cls-9" d="M823.16,542.82l-3.33,2.62-4.93-2.2c-1.07-.71-1-1.6-.41-2.57l3-2.94c.6-.47,1.52-.72,1.25-1.79l-.08.08,3.66-.23C822.5,538.14,824.61,540.26,823.16,542.82Z"/><path class="cls-9" d="M823.1,565.53c.76-2.14.69-4.64,2.7-6.25l5.79.35-.07-.11,1.27,2.48-.12-.1c1.18,2.59.79,4.38-2.45,4.53C827.8,566.55,825.29,567.28,823.1,565.53Z"/><path class="cls-9" d="M835.15,554.81c1.65-1.24.31-4.13,2.48-4.88,1.59-.55,4-1.27,5-.52,2.1,1.6.25,4.31.56,6.54l.19-.05c-1.25.39-1.23,1.42-1.22,2.44l0-.08-1,.59A7.46,7.46,0,0,1,835.15,554.81Z"/><path class="cls-14" d="M823.1,565.53c2.19,1.75,4.7,1,7.12.9,3.24-.15,3.63-1.94,2.45-4.53,1.64.53,2.42,2.51,5.05,1.91a15.32,15.32,0,0,1-20.43.59l.39-.36Z"/><path class="cls-14" d="M824.54,551.28c-.16,3.38-2.19,5.39-5,6.84l0,0c1.57-2.53-1.46-4.49-.87-6.9,2-1.37,3.91-.38,5.85.06Z"/><path class="cls-14" d="M822.3,535.79l-3.66.23c4.84-3.88,9.91-4.85,15.32-1.17-2,.19-3.88.59-3.77,3.25C828.63,533.69,825.69,534,822.3,535.79Z"/><path class="cls-14" d="M829.34,540.59l4.54,3.76a6,6,0,0,1-4.64,3.36l0,0C828.54,545.34,827,543,829.34,540.59Z"/><path class="cls-14" d="M814.49,540.67c-.6,1-.66,1.86.41,2.57-3,1.91-3.74,4.76-3.33,8.08l.24,4.44,0,0C808.21,550.07,809.22,544.46,814.49,540.67Z"/><path class="cls-14" d="M831.59,559.63l-5.79-.35c.18-1.79-.46-4.33,2.41-4.24C830.87,555.12,831.12,557.61,831.59,559.63Z"/><path class="cls-14" d="M817.29,564.4c-1.88-.6-3.32-1.57-3.26-3.81l.26-.29a2.26,2.26,0,0,0,2.6-.19l.16.2c.21,1.24.41,2.49.62,3.73Z"/><path class="cls-14" d="M841.21,558.85l1-.59a2.79,2.79,0,0,1-1,2.64l-.41-.4Z"/><path class="cls-14" d="M832.79,562l-1.27-2.48Z"/><path class="cls-14" d="M842.15,558.34c0-1,0-2.05,1.22-2.44C843.38,556.93,843.37,557.94,842.15,558.34Z"/><path class="cls-14" d="M812.87,558.22c-1.44-.32-1.23-1.39-1.1-2.43l0,0,1.08,2.44Z"/><path class="cls-14" d="M836.31,536c-1.2.36-2.15.23-2.43-1.23A2.15,2.15,0,0,1,836.31,536Z"/><path class="cls-14" d="M814,560.59c-1.34-.32-1.27-1.34-1.16-2.37l0,0,1.4,2.1Z"/><path class="cls-14" d="M841.26,540.39l.41.82-.78-.4Z"/><path class="cls-14" d="M819.55,558.12l-1.36,1-.05,0,1.38-1Z"/><path class="cls-14" d="M839.92,540.61c-.16-.37-.33-.73-.49-1.1l1.83.88-.37.42C840.57,540.73,840.25,540.67,839.92,540.61Z"/><path class="cls-14" d="M838.64,538.72l-1.21-1.62Z"/><path class="cls-14" d="M841.23,560.9l-.73.37c.11-.26.22-.51.32-.77Z"/><path class="cls-14" d="M837.48,537.18c-.77,0-1.54-.08-1.26-1.22Z"/><path class="cls-14" d="M818.72,535.94c.27,1.07-.65,1.32-1.25,1.79Z"/><path class="cls-14" d="M818.19,559.09c0,.77-.31,1.23-1.13,1.22,0,0-.17-.2-.17-.2l1.25-1.07Z"/><path class="cls-14" d="M1049,568c.15,6.8-7,13.94-14.07,14-7.37.06-14-6.59-14.25-14.34-.25-6.92,6.64-13.81,14-14S1048.83,560.4,1049,568Z"/><path class="cls-16" d="M829.34,540.59c-2.39,2.36-.8,4.75-.08,7.14-4.22,1.09-3.45-4-6.1-4.91,1.45-2.56-.66-4.68-.86-7,3.39-1.82,6.33-2.1,7.89,2.31C829.9,538.93,829.62,539.76,829.34,540.59Z"/><path class="cls-16" d="M811.57,551.32c-.41-3.32.33-6.17,3.33-8.08l4.93,2.2c.13,3.09,5.14,2.23,4.67,5.8-1.94-.44-3.88-1.43-5.85-.06Z"/><path class="cls-9" d="M811.57,551.32l7.08-.14c-.59,2.41,2.44,4.37.87,6.9l-1.38,1-1.25,1.06a2.26,2.26,0,0,1-2.6.19l-1.4-2.1-1.08-2.44Z"/><path class="cls-21" d="M672.11,166.35a11.43,11.43,0,0,1-.93,4.6,11.9,11.9,0,0,1-2.53,3.72,11.61,11.61,0,0,1-3.77,2.46,12,12,0,0,1-4.59.88h-5.72v11.28h-6.7V154.77H660.3a12,12,0,0,1,4.58.88,11.78,11.78,0,0,1,3.77,2.44,11.56,11.56,0,0,1,2.53,3.68A11.26,11.26,0,0,1,672.11,166.35Zm-6.69-.09a6.39,6.39,0,0,0-.5-2.51,6.58,6.58,0,0,0-1.36-2,7,7,0,0,0-2-1.38,6.23,6.23,0,0,0-2.51-.52h-4.45v13.05H659a5.93,5.93,0,0,0,2.51-.54,6.67,6.67,0,0,0,2-1.45,6.86,6.86,0,0,0,1.36-2.09A6.52,6.52,0,0,0,665.42,166.26Z"/><path class="cls-21" d="M705.94,189.29H698.6l-3.2-6.91H678.64l-3.24,6.91h-7.35l16.33-34.57h5.23ZM692.77,176.8,687,164.36l-5.83,12.44Z"/><path class="cls-21" d="M738.39,182.94a18.83,18.83,0,0,1-3.19,3.13,19.06,19.06,0,0,1-3.61,2.18,17.58,17.58,0,0,1-3.85,1.28,19.31,19.31,0,0,1-3.91.41,18.82,18.82,0,0,1-7.21-1.38,18.46,18.46,0,0,1-5.88-3.81,17.92,17.92,0,0,1-4-5.7,17.71,17.71,0,0,1,0-14.06,17.81,17.81,0,0,1,4-5.69,19,19,0,0,1,5.9-3.82,18.46,18.46,0,0,1,7.21-1.4,17.92,17.92,0,0,1,8.1,1.81,19,19,0,0,1,6.2,4.84l-4.52,4.62a11.91,11.91,0,0,0-4.36-3.78,12.48,12.48,0,0,0-5.39-1.14,11.89,11.89,0,0,0-10.94,7.06,11.33,11.33,0,0,0,0,9,12,12,0,0,0,2.54,3.69,11.88,11.88,0,0,0,8.39,3.42,11.25,11.25,0,0,0,4.4-.87,13.56,13.56,0,0,0,3.71-2.29v-3.32h-7.09V171.4h13.52Z"/><path class="cls-21" d="M766.39,189.29H743.58V154.77h22.81v5.53H750.15v8.25h16V174h-16v9.51h16.24Z"/><path class="cls-21" d="M813.92,189.29h-6.57l-15.6-24.24v24.24h-6.56V154.72h7.52l14.64,22.56V154.72h6.57Z"/><path class="cls-21" d="M855.75,172a17.24,17.24,0,0,1-1.45,7,17.71,17.71,0,0,1-3.95,5.7,18.77,18.77,0,0,1-5.83,3.82,17.89,17.89,0,0,1-7.07,1.41,18.07,18.07,0,0,1-7.1-1.41,18.75,18.75,0,0,1-5.85-3.82,17.84,17.84,0,0,1-4-5.68,17.9,17.9,0,0,1,0-14.07,17.93,17.93,0,0,1,4-5.7,18.61,18.61,0,0,1,13-5.18,18.22,18.22,0,0,1,7.07,1.38,18.42,18.42,0,0,1,5.83,3.82A18.09,18.09,0,0,1,854.3,165,17.16,17.16,0,0,1,855.75,172Zm-6.7,0a11,11,0,0,0-.91-4.47,11.74,11.74,0,0,0-6.19-6.18,11.09,11.09,0,0,0-4.5-.93,11.22,11.22,0,0,0-4.55.93,11.74,11.74,0,0,0-6.19,6.18,11,11,0,0,0-.91,4.47,11.11,11.11,0,0,0,.91,4.45,11.77,11.77,0,0,0,2.49,3.69,12,12,0,0,0,3.7,2.51,11.22,11.22,0,0,0,4.55.93,11.09,11.09,0,0,0,4.5-.93,12,12,0,0,0,3.7-2.51,11.77,11.77,0,0,0,2.49-3.69A11.11,11.11,0,0,0,849.05,172Z"/><path class="cls-21" d="M882.79,160.73h-9.54v28.56h-6.79V160.73h-9.55v-6h25.88Z"/><path class="cls-21" d="M923.54,160.51H907.29v8h16V174h-16v15.29h-6.57V154.77h22.82Z"/><path class="cls-21" d="M963.2,172a17.23,17.23,0,0,1-1.44,7,17.87,17.87,0,0,1-4,5.7,18.77,18.77,0,0,1-5.83,3.82,17.9,17.9,0,0,1-7.08,1.41,18.14,18.14,0,0,1-7.1-1.41,18.82,18.82,0,0,1-5.84-3.82,17.84,17.84,0,0,1-4-5.68A17.79,17.79,0,0,1,928,165a17.93,17.93,0,0,1,4-5.7,18.56,18.56,0,0,1,12.94-5.18,18.24,18.24,0,0,1,7.08,1.38,18.15,18.15,0,0,1,9.78,9.53A17.16,17.16,0,0,1,963.2,172Zm-6.69,0a11.16,11.16,0,0,0-.91-4.47,12,12,0,0,0-2.49-3.68,12.14,12.14,0,0,0-3.7-2.5,11.47,11.47,0,0,0-9,0,12,12,0,0,0-3.7,2.5,11.79,11.79,0,0,0-2.49,3.68,11,11,0,0,0-.91,4.47,11.11,11.11,0,0,0,.91,4.45,11.61,11.61,0,0,0,2.49,3.69,12,12,0,0,0,3.7,2.51,11.47,11.47,0,0,0,9,0,12.17,12.17,0,0,0,3.7-2.51,11.77,11.77,0,0,0,2.49-3.69A11.28,11.28,0,0,0,956.51,172Z"/><path class="cls-21" d="M998.72,154.72v18.76a19.29,19.29,0,0,1-1,6.44,15.41,15.41,0,0,1-3,5.2,13.86,13.86,0,0,1-4.8,3.5,16.89,16.89,0,0,1-12.85,0,14.37,14.37,0,0,1-4.86-3.43,15.24,15.24,0,0,1-3.09-5.14,18.5,18.5,0,0,1-1.08-6.38v-19h6.7v19a11.94,11.94,0,0,0,.56,3.73,8.86,8.86,0,0,0,1.64,3.05,7.69,7.69,0,0,0,2.7,2,8.54,8.54,0,0,0,3.69.76,9.55,9.55,0,0,0,3.83-.71,7.27,7.27,0,0,0,2.68-2,8.81,8.81,0,0,0,1.6-3,12.76,12.76,0,0,0,.54-3.81v-19.1Z"/><path class="cls-21" d="M1033.07,189.29h-6.57l-15.6-24.24v24.24h-6.56V154.72h7.51l14.65,22.56V154.72h6.57Z"/><path class="cls-21" d="M1070.27,172a18.43,18.43,0,0,1-1.21,6.72,17,17,0,0,1-3.37,5.48,15.65,15.65,0,0,1-11.71,5.08h-14.43V154.72H1054a15.51,15.51,0,0,1,6.55,1.39,16.21,16.21,0,0,1,5.16,3.71,16.86,16.86,0,0,1,3.37,5.49A18.48,18.48,0,0,1,1070.27,172Zm-6.78-.18a12.73,12.73,0,0,0-.74-4.58,11.06,11.06,0,0,0-2.24-3.78,10.36,10.36,0,0,0-3.61-2.55,12.15,12.15,0,0,0-4.82-.92h-5.83v23.59h5.83a12,12,0,0,0,4.73-.89,10.27,10.27,0,0,0,3.57-2.46,11.14,11.14,0,0,0,2.27-3.72A14.06,14.06,0,0,0,1063.49,171.83Z"/><path class="cls-22" d="M725.2,306H710.82v22H691.36V306H644.42V292l49.48-65.64h16.92v62.71H725.2Zm-33.84-16.92V255.22l-25.83,33.72Z"/><path class="cls-22" d="M823.41,278.25a61.91,61.91,0,0,1-2.93,18.7,53.48,53.48,0,0,1-8.52,16.6,44.19,44.19,0,0,1-13.68,11.83,39,39,0,0,1-36.45,0,44.39,44.39,0,0,1-13.61-11.83,54.73,54.73,0,0,1-8.59-16.6,60.75,60.75,0,0,1-3-18.7,69.83,69.83,0,0,1,2.79-19.46,58.76,58.76,0,0,1,8.21-17.43,42.5,42.5,0,0,1,13.55-12.53A36.53,36.53,0,0,1,780,224.06a35.87,35.87,0,0,1,18.76,4.83,44.37,44.37,0,0,1,13.55,12.59,58.38,58.38,0,0,1,8.27,17.43A69.54,69.54,0,0,1,823.41,278.25Zm-20.61,0a70.28,70.28,0,0,0-1.08-11.7A43.65,43.65,0,0,0,798,254.72a27.53,27.53,0,0,0-7.06-9.16A16.31,16.31,0,0,0,780,241.87a15.55,15.55,0,0,0-10.56,3.75,29.15,29.15,0,0,0-7.06,9.29,46.05,46.05,0,0,0-3.95,11.89,62.47,62.47,0,0,0-1.21,11.45,53.57,53.57,0,0,0,1.28,11.26,41.38,41.38,0,0,0,4,11,25.86,25.86,0,0,0,7.06,8.4,18.1,18.1,0,0,0,20.87,0,26.12,26.12,0,0,0,7.06-8.33,40.69,40.69,0,0,0,4-11A55,55,0,0,0,802.8,278.25Z"/><path class="cls-22" d="M914.36,306H900v22H880.52V306H833.58V292l49.49-65.64H900v62.71h14.37Zm-33.84-16.92V255.22L854.7,288.94Z"/><path class="cls-21" d="M683.22,108.9a17.27,17.27,0,0,1-1.45,7,17.71,17.71,0,0,1-3.95,5.7,18.84,18.84,0,0,1-5.82,3.82,18.53,18.53,0,0,1-14.18,0A18.75,18.75,0,0,1,652,121.6a18,18,0,0,1-4-5.68,17.9,17.9,0,0,1,0-14.07,18,18,0,0,1,4-5.7A18.61,18.61,0,0,1,664.92,91a18.37,18.37,0,0,1,12.9,5.2,18.09,18.09,0,0,1,3.95,5.71A17.16,17.16,0,0,1,683.22,108.9Zm-6.7,0a11.08,11.08,0,0,0-.91-4.48,11.77,11.77,0,0,0-6.19-6.17,11.06,11.06,0,0,0-4.5-.93,11.22,11.22,0,0,0-4.55.93,11.77,11.77,0,0,0-6.19,6.17,11.41,11.41,0,0,0,0,8.93,11.77,11.77,0,0,0,2.49,3.69,12,12,0,0,0,3.7,2.51,11.22,11.22,0,0,0,4.55.93,11.06,11.06,0,0,0,4.5-.93,12,12,0,0,0,3.7-2.51,11.77,11.77,0,0,0,2.49-3.69A11.11,11.11,0,0,0,676.52,108.9Z"/><path class="cls-21" d="M709.7,126.18h-6.22v-1.9a6.52,6.52,0,0,1-1.4,1.06,12.36,12.36,0,0,1-1.69.78,11.25,11.25,0,0,1-1.81.49,9.29,9.29,0,0,1-1.75.18,11.14,11.14,0,0,1-3.65-.61,8.41,8.41,0,0,1-3.09-1.86,8.7,8.7,0,0,1-2.14-3.24,12.42,12.42,0,0,1-.8-4.71V101.21h6.22v14.86a6.28,6.28,0,0,0,.41,2.35,4.91,4.91,0,0,0,1.08,1.69,4.15,4.15,0,0,0,1.56,1,5.2,5.2,0,0,0,1.83.33,7.34,7.34,0,0,0,5.23-2.08V101.21h6.22Z"/><path class="cls-21" d="M738.91,113.74a14.06,14.06,0,0,1-.89,5,13.07,13.07,0,0,1-2.49,4.17,12.21,12.21,0,0,1-3.81,2.85,11,11,0,0,1-4.85,1.06,9.82,9.82,0,0,1-3.07-.46,8.37,8.37,0,0,1-2.69-1.44l0,12.1h-6.26V101.16h6.26l.05,1.3a8.3,8.3,0,0,1,2.57-1.38,9.3,9.3,0,0,1,3.13-.52,10.43,10.43,0,0,1,4.45,1,13,13,0,0,1,3.85,2.79,13.87,13.87,0,0,1,2.7,4.17A13.33,13.33,0,0,1,738.91,113.74Zm-6.35,0a9.22,9.22,0,0,0-.52-3.2,7.32,7.32,0,0,0-1.45-2.44,6.28,6.28,0,0,0-2.22-1.55,7.23,7.23,0,0,0-2.84-.55,7.38,7.38,0,0,0-2.27.42,6.59,6.59,0,0,0-2.15,1.1v12a6.59,6.59,0,0,0,4.55,1.85,6.71,6.71,0,0,0,2.76-.56,6.38,6.38,0,0,0,2.19-1.57,7.57,7.57,0,0,0,1.43-2.42A8.68,8.68,0,0,0,732.56,113.78Z"/><path class="cls-21" d="M761.12,119.18a6.32,6.32,0,0,1-.87,3.31,7.76,7.76,0,0,1-2.25,2.42,10.41,10.41,0,0,1-3.12,1.46,12,12,0,0,1-3.42.5,12.84,12.84,0,0,1-5.26-1.06,10.84,10.84,0,0,1-4.22-3.39l3.76-3.8a8.36,8.36,0,0,0,2.59,2.22,6.42,6.42,0,0,0,3.15.8,5,5,0,0,0,2.45-.54,1.76,1.76,0,0,0,1-1.62,2.2,2.2,0,0,0-1.38-1.88,20.84,20.84,0,0,0-3.89-1.49,17.3,17.3,0,0,1-2.85-1.1,10.41,10.41,0,0,1-2.47-1.64,7.93,7.93,0,0,1-1.73-2.23,6.21,6.21,0,0,1-.64-2.89,6.36,6.36,0,0,1,.84-3.26,7.53,7.53,0,0,1,2.21-2.42,10.24,10.24,0,0,1,3.1-1.49,12,12,0,0,1,3.5-.52,11.69,11.69,0,0,1,9.36,4.32l-3.72,3.76a8.63,8.63,0,0,0-2.46-2.12,6.05,6.05,0,0,0-3-.78,5,5,0,0,0-1.18.15,5.44,5.44,0,0,0-1.17.44,2.55,2.55,0,0,0-.89.73,1.63,1.63,0,0,0-.34,1c0,.66.44,1.23,1.32,1.72a19.1,19.1,0,0,0,3.78,1.47,17.79,17.79,0,0,1,3,1.21,11.79,11.79,0,0,1,2.51,1.71,7.44,7.44,0,0,1,1.7,2.2A6,6,0,0,1,761.12,119.18Z"/><path class="cls-21" d="M786.05,91.61l-1.81,25h-3.85l-1.81-25Zm-.52,34.57h-6.44v-6.44h6.44Z"/><path class="cls-23" d="M1259,332.06h-7.79a5.45,5.45,0,0,0,0-10.9h-63.09a5.45,5.45,0,0,0,0,10.9h7.79a5.46,5.46,0,0,0,0,10.91H1185a5.45,5.45,0,1,0,0,10.9h63.09a5.45,5.45,0,0,0,0-10.9H1259a5.46,5.46,0,0,0,0-10.91Z"/><path class="cls-23" d="M616,265.06h-7.79a5.45,5.45,0,0,0,0-10.9H545.14a5.45,5.45,0,0,0,0,10.9h7.79a5.46,5.46,0,0,0,0,10.91H542a5.45,5.45,0,1,0,0,10.9h63.09a5.45,5.45,0,0,0,0-10.9H616a5.46,5.46,0,0,0,0-10.91Z"/><path class="cls-23" d="M1007,345.06h-7.79a5.45,5.45,0,0,0,0-10.9H936.14a5.45,5.45,0,0,0,0,10.9h7.79a5.46,5.46,0,0,0,0,10.91H933a5.45,5.45,0,1,0,0,10.9h63.09a5.45,5.45,0,0,0,0-10.9H1007a5.46,5.46,0,0,0,0-10.91Z"/></svg>