<?xml version="1.0" encoding="utf-8"?>
<!-- Generator: Adobe Illustrator 19.0.0, SVG Export Plug-In . SVG Version: 6.00 Build 0)  -->
<svg version="1.1" id="Layer_1" xmlns="http://www.w3.org/2000/svg" xmlns:xlink="http://www.w3.org/1999/xlink" x="0px" y="0px"
	 viewBox="0 0 625.3 157.3" style="enable-background:new 0 0 625.3 157.3;" xml:space="preserve">
<style type="text/css">
	.st0{fill:url(#XMLID_8_);}
	.st1{fill:url(#XMLID_9_);}
	.st2{fill:#353535;}
</style>
<g id="XMLID_375_">
	<g id="Layer_2_4_">
		<g id="Layer_1-2_4_">
			<radialGradient id="XMLID_8_" cx="22.4687" cy="39.9355" r="164.2702" gradientUnits="userSpaceOnUse">
				<stop  offset="0" style="stop-color:#FFDB00"/>
				<stop  offset="1" style="stop-color:#FFAA00"/>
			</radialGradient>
			<path id="XMLID_30_" class="st0" d="M108.4,82.9c2.3-16.3-9-31.4-25.3-33.7c-16.3-2.3-31.4,9-33.7,25.3
				c-0.9,6.7,0.4,13.5,3.8,19.3l-14.7,14.5c-2.9,2.9-2.9,7.6,0,10.5l0,0c2.9,2.9,7.6,2.9,10.5,0l14.6-14.6c13.5,8,30.8,4.2,39.7-8.7
				C106,91.7,107.7,87.4,108.4,82.9z M89.5,89.3c-5.8,5.8-15.3,5.9-21.1,0c0,0,0,0,0,0c-5.8-5.8-5.9-15.3,0-21.1c0,0,0,0,0,0
				c5.9-5.8,15.4-5.8,21.2,0.1c2.8,2.8,4.3,6.6,4.3,10.5c0,4-1.6,7.8-4.5,10.6H89.5z"/>
			<radialGradient id="XMLID_9_" cx="22.4687" cy="39.9355" r="164.2702" gradientUnits="userSpaceOnUse">
				<stop  offset="0" style="stop-color:#FFDB00"/>
				<stop  offset="1" style="stop-color:#FFAA00"/>
			</radialGradient>
			<path id="XMLID_27_" class="st1" d="M78.8,0C35.3,0,0.1,35.2,0.1,78.7s35.2,78.7,78.7,78.7s78.7-35.2,78.7-78.7c0,0,0,0,0,0
				C157.5,35.3,122.3,0.1,78.8,0z M15.1,73.8c2.7-35.2,33.4-61.5,68.6-58.8c10,0.8,19.6,3.8,28.1,9c3,1.9,3.9,5.8,2,8.8
				c-0.2,0.4-0.5,0.7-0.8,1l-8.7,8.9c-3,2.8-3.2,7.5-0.4,10.5s7.5,3.2,10.5,0.4c0.1-0.1,0.3-0.3,0.4-0.4l8.7-8.7
				c2.5-2.5,6.5-2.5,9,0c0.4,0.4,0.7,0.7,0.9,1.2c12.3,20.3,12.3,45.7,0,66c-1.8,3-5.7,4-8.7,2.2c-0.5-0.3-0.9-0.6-1.2-1l-8-8
				c-2.9-2.9-7.6-2.9-10.5,0s-2.9,7.6,0,10.5l8,8c2.5,2.5,2.5,6.5,0,9c-0.4,0.4-0.7,0.7-1.2,0.9c-30.2,18.2-69.4,8.5-87.7-21.7
				C17.2,100.3,14.1,87.1,15.1,73.8z"/>
		</g>
	</g>
	<g id="XMLID_26_">
		<path id="XMLID_109_" class="st2" d="M226.2,56.4H205V45h54.3v11.3H238v64.6h-11.9V56.4z"/>
		<path id="XMLID_111_" class="st2" d="M273,118.9c-4.3-2.5-7.7-6-10.1-10.3c-2.4-4.4-3.6-9.3-3.6-14.6c0-5.4,1.2-10.2,3.6-14.6
			c2.4-4.4,5.8-7.8,10.1-10.3c4.3-2.5,9.2-3.8,14.6-3.8c5.4,0,10.3,1.3,14.6,3.8c4.3,2.5,7.7,6,10.1,10.4c2.4,4.4,3.6,9.2,3.6,14.5
			c0,5.4-1.2,10.2-3.6,14.6c-2.4,4.4-5.8,7.8-10.1,10.3c-4.3,2.5-9.2,3.8-14.6,3.8C282.2,122.6,277.3,121.4,273,118.9z M295.9,109.8
			c2.5-1.4,4.6-3.5,6.1-6.3c1.5-2.7,2.3-5.9,2.3-9.6c0-3.7-0.8-6.9-2.3-9.5c-1.5-2.7-3.6-4.8-6.1-6.2c-2.5-1.4-5.3-2.2-8.3-2.2
			s-5.7,0.7-8.3,2.2c-2.5,1.4-4.6,3.5-6.1,6.2c-1.5,2.7-2.3,5.9-2.3,9.5c0,3.7,0.8,6.9,2.3,9.6c1.5,2.7,3.6,4.8,6.1,6.3
			c2.5,1.4,5.3,2.2,8.3,2.2S293.4,111.2,295.9,109.8z"/>
		<path id="XMLID_114_" class="st2" d="M327.6,66.9h11.1V74h0.5c1.6-2.5,3.9-4.6,6.9-6.3c3.1-1.7,6.3-2.5,9.8-2.5
			c6.6,0,11.6,1.9,15,5.8c3.4,3.9,5.1,9.1,5.1,15.7v34.2h-11.7V88.3c0-4.2-1-7.3-3.1-9.3c-2.1-2-5-3-8.6-3c-2.6,0-4.9,0.7-7,2.2
			c-2.1,1.4-3.6,3.4-4.8,5.8c-1.1,2.4-1.7,5-1.7,7.7v29.3h-11.7V66.9z"/>
		<path id="XMLID_116_" class="st2" d="M402,118.9c-4.3-2.5-7.7-6-10.1-10.3c-2.4-4.4-3.6-9.3-3.6-14.6c0-5.4,1.2-10.2,3.6-14.6
			c2.4-4.4,5.8-7.8,10.1-10.3c4.3-2.5,9.2-3.8,14.6-3.8c5.4,0,10.3,1.3,14.6,3.8c4.3,2.5,7.7,6,10.1,10.4c2.4,4.4,3.6,9.2,3.6,14.5
			c0,5.4-1.2,10.2-3.6,14.6c-2.4,4.4-5.8,7.8-10.1,10.3c-4.3,2.5-9.2,3.8-14.6,3.8C411.2,122.6,406.3,121.4,402,118.9z M424.9,109.8
			c2.5-1.4,4.6-3.5,6.1-6.3c1.5-2.7,2.3-5.9,2.3-9.6c0-3.7-0.8-6.9-2.3-9.5c-1.5-2.7-3.6-4.8-6.1-6.2c-2.5-1.4-5.3-2.2-8.3-2.2
			c-3,0-5.7,0.7-8.3,2.2c-2.5,1.4-4.6,3.5-6.1,6.2c-1.5,2.7-2.3,5.9-2.3,9.5c0,3.7,0.8,6.9,2.3,9.6c1.5,2.7,3.6,4.8,6.1,6.3
			c2.5,1.4,5.3,2.2,8.3,2.2C419.6,111.9,422.4,111.2,424.9,109.8z"/>
		<path id="XMLID_119_" class="st2" d="M475.7,120.1c-3-1.7-5.3-3.7-6.9-6.1h-0.5v7h-11.1V45h11.7v21.3l-0.5,7.6h0.5
			c1.6-2.5,3.9-4.6,6.9-6.3c3-1.7,6.5-2.5,10.3-2.5c4.9,0,9.3,1.2,13.3,3.7c4,2.5,7.1,5.9,9.4,10.2c2.3,4.3,3.4,9.3,3.4,14.8
			c0,5.5-1.1,10.4-3.4,14.8c-2.3,4.3-5.4,7.8-9.4,10.2c-4,2.5-8.4,3.7-13.3,3.7C482.2,122.6,478.7,121.8,475.7,120.1z M492.2,109.7
			c2.5-1.5,4.5-3.6,5.9-6.4c1.5-2.8,2.2-5.9,2.2-9.4c0-3.5-0.7-6.7-2.2-9.4c-1.5-2.7-3.5-4.8-5.9-6.3c-2.5-1.5-5.1-2.2-8-2.2
			c-2.8,0-5.5,0.7-7.9,2.2c-2.4,1.5-4.4,3.6-5.9,6.3c-1.5,2.7-2.2,5.8-2.2,9.4c0,3.5,0.7,6.7,2.2,9.4c1.5,2.8,3.4,4.9,5.9,6.4
			c2.4,1.5,5.1,2.2,7.9,2.2C487.1,111.9,489.8,111.2,492.2,109.7z"/>
		<path id="XMLID_122_" class="st2" d="M525.3,56.8c-1.5-1.5-2.3-3.4-2.3-5.6c0-2.2,0.8-4,2.3-5.6c1.5-1.5,3.4-2.3,5.6-2.3
			c2.2,0,4,0.8,5.6,2.3c1.5,1.5,2.3,3.4,2.3,5.6c0,2.2-0.8,4-2.3,5.6c-1.5,1.5-3.4,2.3-5.6,2.3C528.6,59,526.8,58.3,525.3,56.8z
			 M525,66.9h11.7v54.1H525V66.9z"/>
		<path id="XMLID_125_" class="st2" d="M553.2,45h11.7v75.9h-11.7V45z"/>
		<path id="XMLID_127_" class="st2" d="M586.6,120.4c-3-1.5-5.4-3.7-7.1-6.5c-1.7-2.8-2.5-6-2.5-9.5c0-5.6,2.1-10,6.3-13.3
			c4.2-3.2,9.5-4.9,16-4.9c3.2,0,6,0.3,8.6,0.9c2.5,0.6,4.6,1.3,6,2v-2.8c0-3.3-1.2-6-3.7-8.1c-2.5-2.1-5.7-3.1-9.5-3.1
			c-2.8,0-5.4,0.6-7.8,1.8c-2.4,1.2-4.4,2.9-5.9,5l-8.2-6.3c2.4-3.3,5.5-5.9,9.3-7.7c3.8-1.8,8.1-2.8,12.7-2.8
			c7.8,0,13.9,1.9,18.1,5.8s6.4,9.3,6.4,16.3v33.7h-11.4v-6.5h-0.5c-1.6,2.3-3.7,4.3-6.6,5.8c-2.8,1.6-6.1,2.3-9.8,2.3
			C593.1,122.6,589.6,121.9,586.6,120.4z M606.6,111c2.3-1.3,4-3.1,5.3-5.4c1.3-2.3,1.9-4.7,1.9-7.3c-1.6-0.9-3.5-1.7-5.7-2.2
			c-2.2-0.6-4.4-0.8-6.7-0.8c-4.4,0-7.6,0.9-9.6,2.6c-2,1.7-3.1,4-3.1,6.7c0,2.5,1,4.5,2.9,6.1c1.9,1.6,4.4,2.4,7.4,2.4
			C601.8,113,604.3,112.3,606.6,111z"/>
	</g>
</g>
<g id="XMLID_1_">
</g>
<g id="XMLID_2_">
</g>
<g id="XMLID_3_">
</g>
<g id="XMLID_4_">
</g>
<g id="XMLID_5_">
</g>
<g id="XMLID_6_">
</g>
</svg>
