<svg xmlns="http://www.w3.org/2000/svg" viewBox="0 0 148.26 46.51"><defs><style>.cls-1{fill:#11111e;}</style></defs><title>Asset 1</title><g id="Layer_2" data-name="Layer 2"><g id="Layer_1-2" data-name="Layer 1"><path class="cls-1" d="M32,24.49a8.8,8.8,0,1,0-16.29,3.24L11.37,32a2.2,2.2,0,0,0,0,3.1h0a2.2,2.2,0,0,0,3.1,0l4.31-4.32a8.81,8.81,0,0,0,11.74-2.58A8.63,8.63,0,0,0,32,24.49Zm-5.59,1.89a4.41,4.41,0,0,1-6.25,0,4.41,4.41,0,0,1,0-6.25,4.43,4.43,0,0,1,7.55,3.13A4.36,4.36,0,0,1,26.38,26.38Z"/><path class="cls-1" d="M23.26,0A23.26,23.26,0,1,0,46.51,23.26,23.28,23.28,0,0,0,23.26,0ZM4.43,21.82A18.87,18.87,0,0,1,33,7.11,1.88,1.88,0,0,1,33.37,10L30.8,12.62a2.19,2.19,0,1,0,3.09,3.1l2.58-2.58a1.88,1.88,0,0,1,2.93.36A18.79,18.79,0,0,1,39.4,33a1.87,1.87,0,0,1-2.93.36L34.11,31A2.18,2.18,0,1,0,31,34.11l2.35,2.36A1.88,1.88,0,0,1,33,39.4,18.87,18.87,0,0,1,4.43,21.82Z"/><path class="cls-1" d="M49.68,5.21h-.8L47.84,4h-.65V5.21h-.67V1.63h1.7A1.17,1.17,0,0,1,49.5,2.82,1.06,1.06,0,0,1,48.6,4l1.08,1.22ZM47.19,2.27V3.41h1a.56.56,0,0,0,.61-.57.56.56,0,0,0-.61-.57Z"/><path class="cls-1" d="M48,6.94a3.42,3.42,0,1,1,3.42-3.42A3.42,3.42,0,0,1,48,6.94ZM48,.67a2.85,2.85,0,1,0,2.85,2.85A2.85,2.85,0,0,0,48,.67Z"/><polygon class="cls-1" points="65.04 23.59 65.04 26.5 59.34 26.5 59.34 42.13 55.95 42.13 55.95 26.5 50.24 26.5 50.24 23.59 65.04 23.59"/><path class="cls-1" d="M76.64,35.12a9.09,9.09,0,0,1-.48,3,6.61,6.61,0,0,1-1.37,2.32A6,6,0,0,1,72.66,42a7.2,7.2,0,0,1-5.47,0,6,6,0,0,1-2.11-1.5,6.78,6.78,0,0,1-1.38-2.32,8.83,8.83,0,0,1-.5-3,8.72,8.72,0,0,1,.5-3,6.7,6.7,0,0,1,1.39-2.31,6.13,6.13,0,0,1,2.13-1.49,6.81,6.81,0,0,1,2.7-.52,6.94,6.94,0,0,1,2.72.52,6,6,0,0,1,2.13,1.49,7,7,0,0,1,1.37,2.31A8.72,8.72,0,0,1,76.64,35.12Zm-3.32,0a5.43,5.43,0,0,0-.9-3.3,3.17,3.17,0,0,0-5,0,5.43,5.43,0,0,0-.9,3.3,5.57,5.57,0,0,0,.9,3.35,3.16,3.16,0,0,0,5,0A5.57,5.57,0,0,0,73.32,35.12Z"/><path class="cls-1" d="M79,28.59a21.5,21.5,0,0,1,2.44-.51,21,21,0,0,1,3.32-.24,7.64,7.64,0,0,1,2.86.47,4.5,4.5,0,0,1,1.84,1.31,5.08,5.08,0,0,1,1,2,11.17,11.17,0,0,1,.28,2.61v7.86H87.44V34.77a10.42,10.42,0,0,0-.15-1.91,3.11,3.11,0,0,0-.48-1.28,1.88,1.88,0,0,0-.91-.73,3.85,3.85,0,0,0-1.4-.22,9.7,9.7,0,0,0-1.29.08c-.44.05-.77.09-1,.13V42.13H79Z"/><path class="cls-1" d="M106.3,35.12a9.09,9.09,0,0,1-.48,3,6.61,6.61,0,0,1-1.37,2.32,6,6,0,0,1-2.13,1.5,7.2,7.2,0,0,1-5.47,0,6,6,0,0,1-2.11-1.5,6.78,6.78,0,0,1-1.38-2.32,8.83,8.83,0,0,1-.5-3,8.72,8.72,0,0,1,.5-3,6.7,6.7,0,0,1,1.39-2.31,6.13,6.13,0,0,1,2.13-1.49,6.81,6.81,0,0,1,2.7-.52,6.94,6.94,0,0,1,2.72.52,6,6,0,0,1,2.13,1.49,7,7,0,0,1,1.37,2.31A8.72,8.72,0,0,1,106.3,35.12Zm-3.32,0a5.43,5.43,0,0,0-.9-3.3,3.17,3.17,0,0,0-5,0,5.43,5.43,0,0,0-.9,3.3,5.57,5.57,0,0,0,.9,3.35,3.16,3.16,0,0,0,5,0A5.57,5.57,0,0,0,103,35.12Z"/><path class="cls-1" d="M121.25,35.15a8.81,8.81,0,0,1-.5,3,6.59,6.59,0,0,1-1.41,2.31A6.15,6.15,0,0,1,117.1,42a8.11,8.11,0,0,1-3,.51,18.79,18.79,0,0,1-3.06-.24,20.53,20.53,0,0,1-2.43-.53V21.9l3.24-.53v7.25a7.64,7.64,0,0,1,1.38-.54,6.39,6.39,0,0,1,1.81-.24,6.46,6.46,0,0,1,2.63.52,5.13,5.13,0,0,1,1.94,1.49,6.84,6.84,0,0,1,1.2,2.31A10.44,10.44,0,0,1,121.25,35.15Zm-3.32,0a5.77,5.77,0,0,0-.81-3.27,2.92,2.92,0,0,0-2.59-1.2,4.68,4.68,0,0,0-1.51.24,5.09,5.09,0,0,0-1.14.53v8.06a8.7,8.7,0,0,0,.9.14,10,10,0,0,0,1.32.07,3.42,3.42,0,0,0,2.81-1.22A5.06,5.06,0,0,0,117.93,35.1Z"/><path class="cls-1" d="M127.21,24a1.88,1.88,0,0,1-.59,1.45,2,2,0,0,1-1.39.53,2,2,0,0,1-1.42-.53,1.88,1.88,0,0,1-.59-1.45,1.91,1.91,0,0,1,.59-1.47,2,2,0,0,1,1.42-.54,2,2,0,0,1,1.39.54A1.91,1.91,0,0,1,127.21,24Zm-.35,18.09h-3.24v-14h3.24Z"/><path class="cls-1" d="M134.85,42.4a8.69,8.69,0,0,1-2.39-.32,3.82,3.82,0,0,1-1.52-.84,3.12,3.12,0,0,1-.79-1.37,7,7,0,0,1-.22-1.86V21.9l3.24-.53v16a4.64,4.64,0,0,0,.09,1,1.6,1.6,0,0,0,.33.68,1.49,1.49,0,0,0,.66.43,5.49,5.49,0,0,0,1.06.23Z"/><path class="cls-1" d="M142.59,27.79a7.84,7.84,0,0,1,2.7.4A4.37,4.37,0,0,1,147,29.31a4.27,4.27,0,0,1,.94,1.76,8.43,8.43,0,0,1,.28,2.26v8.48c-.5.11-1.25.24-2.26.39a23.35,23.35,0,0,1-3.41.23,10.37,10.37,0,0,1-2.31-.24,4.89,4.89,0,0,1-1.78-.78A3.65,3.65,0,0,1,137.35,40a4.93,4.93,0,0,1-.41-2.11,4.1,4.1,0,0,1,.47-2,3.82,3.82,0,0,1,1.27-1.35,5.34,5.34,0,0,1,1.86-.75,10.55,10.55,0,0,1,2.21-.23,11.21,11.21,0,0,1,1.12.07,9.41,9.41,0,0,1,1.26.23V33.3a4.68,4.68,0,0,0-.13-1.07,2.29,2.29,0,0,0-.47-.9,2.41,2.41,0,0,0-.89-.6,3.83,3.83,0,0,0-1.37-.21,12.09,12.09,0,0,0-2.07.16,9.68,9.68,0,0,0-1.52.37l-.4-2.62a14.33,14.33,0,0,1,4.31-.64Zm.26,12.07a11.89,11.89,0,0,0,2.28-.16V36.11c-.18,0-.44-.1-.78-.16a7.66,7.66,0,0,0-1.12-.08,7.85,7.85,0,0,0-1.08.08,3.43,3.43,0,0,0-1,.3,1.71,1.71,0,0,0-.7.6,1.67,1.67,0,0,0-.27,1,1.72,1.72,0,0,0,.72,1.59A3.75,3.75,0,0,0,142.85,39.86Z"/></g></g></svg>