<svg height="35pt" viewBox="1 -33 511.99963 511" width="35pt" xmlns="http://www.w3.org/2000/svg">
    <path d="m506.960938 219.847656-151.214844-151.21875v-50.898437c0-9.5-7.730469-17.230469-17.230469-17.230469h-66.179687c-4.144532 0-7.5 3.359375-7.5 7.5s3.355468 7.5 7.5 7.5h66.179687c1.230469 0 2.230469 1 2.230469 2.230469v276.933593c0 1.230469-1 2.230469-2.230469 2.230469h-85.804687v-65.757812h66.992187c4.144531 0 7.5-3.355469 7.5-7.5v-188.101563c0-4.144531-3.355469-7.5-7.5-7.5h-98.75c-4.140625 0-7.5 3.355469-7.5 7.5 0 4.140625 3.359375 7.5 7.5 7.5h91.25v173.101563h-59.492187v-66.089844c0-9.5-7.730469-17.230469-17.230469-17.230469h-88.902344v-89.78125h41.714844c4.140625 0 7.5-3.359375 7.5-7.5 0-4.144531-3.359375-7.5-7.5-7.5h-49.214844c-4.144531 0-7.503906 3.355469-7.503906 7.5v97.28125h-13.539063v-115.085937c0-1.230469 1-2.230469 2.230469-2.230469h119.40625c4.144531 0 7.503906-3.359375 7.503906-7.5s-3.359375-7.5-7.503906-7.5h-119.40625c-9.5 0-17.230469 7.730469-17.230469 17.230469v115.085937h-85.804687c-9.5 0-17.230469 7.730469-17.230469 17.230469v276.933594c0 9.5 7.730469 17.230469 17.230469 17.230469h34.566406c4.140625 0 7.5-3.359376 7.5-7.5 0-4.144532-3.359375-7.5-7.5-7.5h-34.566406c-1.230469 0-2.230469-1-2.230469-2.230469v-276.933594c0-1.230469 1-2.230469 2.230469-2.230469h218.25c1.226562 0 2.226562 1 2.226562 2.230469v276.933594c0 1.230469-1 2.230469-2.226562 2.230469h-151.023438c-4.140625 0-7.5 3.359374-7.5 7.5 0 4.140624 3.359375 7.5 7.5 7.5h151.023438c9.5 0 17.226562-7.730469 17.226562-17.230469v-21.007813l34.0625 34.0625c3.257813 3.253906 7.582031 5.046875 12.183594 5.046875 4.605469 0 8.929687-1.792969 12.183594-5.046875l195.824219-195.824218c6.71875-6.714844 6.71875-17.648438 0-24.363282zm-151.214844 74.816406v-165.882812l102.535156 102.539062-122.402344 122.402344-41.828125-41.828125h44.464844c9.5 0 17.230469-7.730469 17.230469-17.230469zm140.609375-61.058593-195.824219 195.824219c-.539062.539062-1.15625.652343-1.574219.652343-.421875 0-1.039062-.113281-1.578125-.652343l-44.667968-44.667969v-72.867188h20.128906l57.734375 57.738281c1.464843 1.464844 3.386719 2.195313 5.304687 2.195313 1.917969 0 3.839844-.730469 5.300782-2.195313l133.011718-133.011718c1.40625-1.40625 2.195313-3.3125 2.195313-5.300782 0-1.988281-.789063-3.898437-2.195313-5.304687l-118.445312-118.445313v-17.726562l140.609375 140.609375c.867187.871094.867187 2.285156 0 3.152344zm0 0"/>
    <path d="m306.496094 357.363281c-2.929688-2.929687-7.675782-2.929687-10.605469 0-2.929687 2.929688-2.929687 7.675781 0 10.605469l18.171875 18.175781c1.464844 1.464844 3.382812 2.195313 5.304688 2.195313 1.917968 0 3.835937-.730469 5.300781-2.195313 2.929687-2.929687 2.929687-7.679687 0-10.609375zm0 0"/>
    <path d="m319.703125 239.488281h-25.699219c-4.140625 0-7.5 3.359375-7.5 7.5s3.359375 7.5 7.5 7.5h25.699219c4.144531 0 7.5-3.359375 7.5-7.5s-3.355469-7.5-7.5-7.5zm0 0"/>
    <path d="m224.167969 167.851562c0-4.144531-3.355469-7.5-7.5-7.5h-180.628907c-4.140624 0-7.5 3.355469-7.5 7.5v188.101563c0 4.144531 3.359376 7.5 7.5 7.5h180.628907c4.144531 0 7.5-3.355469 7.5-7.5zm-15 180.601563h-165.628907v-173.101563h165.628907zm0 0"/>
    <path d="m216.667969 371.804688h-25.699219c-4.140625 0-7.5 3.359374-7.5 7.5 0 4.144531 3.359375 7.5 7.5 7.5h25.699219c4.144531 0 7.5-3.355469 7.5-7.5 0-4.140626-3.355469-7.5-7.5-7.5zm0 0"/>
</svg>